solid OpenSCAD_Model
  facet normal -1 0 0
    outer loop
      vertex -5 -5 35
      vertex -5 65 40
      vertex -5 65 35
    endloop
  endfacet
  facet normal -1 -0 0
    outer loop
      vertex -5 65 40
      vertex -5 -5 35
      vertex -5 -5 40
    endloop
  endfacet
  facet normal 0 0 1
    outer loop
      vertex 63.3 50 40
      vertex 95 65 40
      vertex 63.3 61.2 40
    endloop
  endfacet
  facet normal -0 0 1
    outer loop
      vertex -5 65 40
      vertex 63.3 61.2 40
      vertex 95 65 40
    endloop
  endfacet
  facet normal 0 0 1
    outer loop
      vertex 6.5 61.2 40
      vertex -5 65 40
      vertex 6.5 50 40
    endloop
  endfacet
  facet normal 0 0 1
    outer loop
      vertex 63.3 61.2 40
      vertex -5 65 40
      vertex 6.5 61.2 40
    endloop
  endfacet
  facet normal 0 0 1
    outer loop
      vertex 95 65 40
      vertex 63.3 50 40
      vertex 95 -5 40
    endloop
  endfacet
  facet normal 0 0 1
    outer loop
      vertex -5 -5 40
      vertex 63.3 50 40
      vertex 6.5 50 40
    endloop
  endfacet
  facet normal 0 0 1
    outer loop
      vertex 63.3 50 40
      vertex -5 -5 40
      vertex 95 -5 40
    endloop
  endfacet
  facet normal 0 0 1
    outer loop
      vertex -5 -5 40
      vertex 6.5 50 40
      vertex -5 65 40
    endloop
  endfacet
  facet normal 1 0 0
    outer loop
      vertex 95 65 40
      vertex 95 60 35
      vertex 95 65 35
    endloop
  endfacet
  facet normal 1 0 0
    outer loop
      vertex 95 60 35
      vertex 95 55.5 24.3
      vertex 95 60 22.6
    endloop
  endfacet
  facet normal 1 0 0
    outer loop
      vertex 95 60 35
      vertex 95 42.3 24.3
      vertex 95 55.5 24.3
    endloop
  endfacet
  facet normal 1 0 0
    outer loop
      vertex 95 25.7 24.3
      vertex 95 60 35
      vertex 95 65 40
    endloop
  endfacet
  facet normal 1 0 0
    outer loop
      vertex 95 42.3 24.3
      vertex 95 38.9 24.3
      vertex 95 42.3 22.6
    endloop
  endfacet
  facet normal 1 0 0
    outer loop
      vertex 95 60 35
      vertex 95 38.9 24.3
      vertex 95 42.3 24.3
    endloop
  endfacet
  facet normal 1 0 0
    outer loop
      vertex 95 60 35
      vertex 95 25.7 24.3
      vertex 95 38.9 24.3
    endloop
  endfacet
  facet normal 1 0 0
    outer loop
      vertex 95 25.7 24.3
      vertex 95 21 22.7
      vertex 95 25.7 22.6
    endloop
  endfacet
  facet normal 1 -0 0
    outer loop
      vertex 95 -5 40
      vertex 95 25.7 24.3
      vertex 95 65 40
    endloop
  endfacet
  facet normal 1 0 0
    outer loop
      vertex 95 25.7 24.3
      vertex 95 0 35
      vertex 95 21 22.7
    endloop
  endfacet
  facet normal 1 0 0
    outer loop
      vertex 95 0 22.6
      vertex 95 5 22.7
      vertex 95 0 35
    endloop
  endfacet
  facet normal 1 0 0
    outer loop
      vertex 95 21 22.7
      vertex 95 0 35
      vertex 95 5 22.7
    endloop
  endfacet
  facet normal 1 0 0
    outer loop
      vertex 95 25.7 24.3
      vertex 95 -5 40
      vertex 95 0 35
    endloop
  endfacet
  facet normal 1 0 0
    outer loop
      vertex 95 0 35
      vertex 95 -5 40
      vertex 95 -5 35
    endloop
  endfacet
  facet normal 1 0 0
    outer loop
      vertex 95 60 22.6
      vertex 95 55.5 24.3
      vertex 95 55.5 22.6
    endloop
  endfacet
  facet normal 1 0 0
    outer loop
      vertex 95 42.3 22.6
      vertex 95 38.9 24.3
      vertex 95 38.9 22.6
    endloop
  endfacet
  facet normal 1 0 0
    outer loop
      vertex 95 25.7 22.6
      vertex 95 21 22.7
      vertex 95 21 22.6
    endloop
  endfacet
  facet normal 1 0 0
    outer loop
      vertex 95 5 22.7
      vertex 95 0 22.6
      vertex 95 5 22.6
    endloop
  endfacet
  facet normal 0 1 -0
    outer loop
      vertex 95 65 35
      vertex -5 65 40
      vertex 95 65 40
    endloop
  endfacet
  facet normal 0 1 0
    outer loop
      vertex -5 65 40
      vertex 95 65 35
      vertex -5 65 35
    endloop
  endfacet
  facet normal 0 0 -1
    outer loop
      vertex -5 -5 35
      vertex 9 0 35
      vertex 9 -5 35
    endloop
  endfacet
  facet normal 0 0 -1
    outer loop
      vertex -5 65 35
      vertex 6.5 50 35
      vertex -5 -5 35
    endloop
  endfacet
  facet normal -0 0 -1
    outer loop
      vertex 9 0 35
      vertex -5 -5 35
      vertex 6.5 50 35
    endloop
  endfacet
  facet normal 0 0 -1
    outer loop
      vertex 95 -5 35
      vertex 90 0 35
      vertex 95 0 35
    endloop
  endfacet
  facet normal 0 0 -1
    outer loop
      vertex 90 0 35
      vertex 63.3 50 35
      vertex 90 60 35
    endloop
  endfacet
  facet normal 0 0 -1
    outer loop
      vertex 59 -5 35
      vertex 90 0 35
      vertex 95 -5 35
    endloop
  endfacet
  facet normal 0 0 -1
    outer loop
      vertex 59 0 35
      vertex 90 0 35
      vertex 59 -5 35
    endloop
  endfacet
  facet normal 0 0 -1
    outer loop
      vertex 90 0 35
      vertex 59 0 35
      vertex 63.3 50 35
    endloop
  endfacet
  facet normal 0 0 -1
    outer loop
      vertex 6.5 50 35
      vertex 59 0 35
      vertex 9 0 35
    endloop
  endfacet
  facet normal 0 0 -1
    outer loop
      vertex 59 0 35
      vertex 6.5 50 35
      vertex 63.3 50 35
    endloop
  endfacet
  facet normal 0 0 -1
    outer loop
      vertex 90 60 35
      vertex 95 65 35
      vertex 95 60 35
    endloop
  endfacet
  facet normal 0 0 -1
    outer loop
      vertex 63.3 61.2 35
      vertex 90 60 35
      vertex 63.3 50 35
    endloop
  endfacet
  facet normal 0 0 -1
    outer loop
      vertex 90 60 35
      vertex 63.3 61.2 35
      vertex 95 65 35
    endloop
  endfacet
  facet normal 0 0 -1
    outer loop
      vertex -5 65 35
      vertex 63.3 61.2 35
      vertex 6.5 61.2 35
    endloop
  endfacet
  facet normal 0 0 -1
    outer loop
      vertex 63.3 61.2 35
      vertex -5 65 35
      vertex 95 65 35
    endloop
  endfacet
  facet normal 0 0 -1
    outer loop
      vertex 6.5 50 35
      vertex -5 65 35
      vertex 6.5 61.2 35
    endloop
  endfacet
  facet normal 0 -1 0
    outer loop
      vertex 59 -5 35
      vertex 52.8116 -5 14.9941
      vertex 53 -5 15
    endloop
  endfacet
  facet normal 0 -1 0
    outer loop
      vertex 59 -5 35
      vertex 52.624 -5 14.9763
      vertex 52.8116 -5 14.9941
    endloop
  endfacet
  facet normal 0 -1 0
    outer loop
      vertex 59 -5 35
      vertex 52.4379 -5 14.9469
      vertex 52.624 -5 14.9763
    endloop
  endfacet
  facet normal 0 -1 0
    outer loop
      vertex 59 -5 35
      vertex 52.2539 -5 14.9057
      vertex 52.4379 -5 14.9469
    endloop
  endfacet
  facet normal 0 -1 0
    outer loop
      vertex 59 -5 35
      vertex 52.0729 -5 14.8532
      vertex 52.2539 -5 14.9057
    endloop
  endfacet
  facet normal 0 -1 0
    outer loop
      vertex 42 -5 15.5
      vertex 51.8956 -5 14.7893
      vertex 52.0729 -5 14.8532
    endloop
  endfacet
  facet normal 0 -1 0
    outer loop
      vertex 42 -5 15.5
      vertex 51.7227 -5 14.7145
      vertex 51.8956 -5 14.7893
    endloop
  endfacet
  facet normal 0 -1 0
    outer loop
      vertex 42 -5 15.5
      vertex 51.5547 -5 14.6289
      vertex 51.7227 -5 14.7145
    endloop
  endfacet
  facet normal 0 -1 0
    outer loop
      vertex 42 -5 15.5
      vertex 51.3925 -5 14.533
      vertex 51.5547 -5 14.6289
    endloop
  endfacet
  facet normal 0 -1 0
    outer loop
      vertex 42 -5 15.5
      vertex 51.2366 -5 14.4271
      vertex 51.3925 -5 14.533
    endloop
  endfacet
  facet normal 0 -1 0
    outer loop
      vertex 42 -5 15.5
      vertex 51.0877 -5 14.3115
      vertex 51.2366 -5 14.4271
    endloop
  endfacet
  facet normal 0 -1 0
    outer loop
      vertex 42 -5 15.5
      vertex 50.9464 -5 14.1869
      vertex 51.0877 -5 14.3115
    endloop
  endfacet
  facet normal 0 -1 0
    outer loop
      vertex 42 -5 15.5
      vertex 50.8131 -5 14.0536
      vertex 50.9464 -5 14.1869
    endloop
  endfacet
  facet normal 0 -1 0
    outer loop
      vertex 42 -5 15.5
      vertex 50.6885 -5 13.9123
      vertex 50.8131 -5 14.0536
    endloop
  endfacet
  facet normal 0 -1 0
    outer loop
      vertex 42 -5 15.5
      vertex 50.5729 -5 13.7634
      vertex 50.6885 -5 13.9123
    endloop
  endfacet
  facet normal 0 -1 0
    outer loop
      vertex 42 -5 15.5
      vertex 50.467 -5 13.6075
      vertex 50.5729 -5 13.7634
    endloop
  endfacet
  facet normal 0 -1 0
    outer loop
      vertex 42 -5 15.5
      vertex 50.3711 -5 13.4453
      vertex 50.467 -5 13.6075
    endloop
  endfacet
  facet normal 0 -1 0
    outer loop
      vertex 42 -5 15.5
      vertex 50.2855 -5 13.2773
      vertex 50.3711 -5 13.4453
    endloop
  endfacet
  facet normal 0 -1 0
    outer loop
      vertex 42 -5 15.5
      vertex 50.2107 -5 13.1044
      vertex 50.2855 -5 13.2773
    endloop
  endfacet
  facet normal 0 -1 0
    outer loop
      vertex 42 -5 15.5
      vertex 50.1468 -5 12.9271
      vertex 50.2107 -5 13.1044
    endloop
  endfacet
  facet normal 0 -1 0
    outer loop
      vertex 42 -5 15.5
      vertex 50.0942 -5 12.7461
      vertex 50.1468 -5 12.9271
    endloop
  endfacet
  facet normal 0 -1 0
    outer loop
      vertex 42 -5 11.8
      vertex 50.0942 -5 12.7461
      vertex 42 -5 15.5
    endloop
  endfacet
  facet normal 0 -1 0
    outer loop
      vertex 50.0942 -5 12.7461
      vertex 42 -5 11.8
      vertex 50.0531 -5 12.5621
    endloop
  endfacet
  facet normal 0 -1 0
    outer loop
      vertex 50.0531 -5 12.5621
      vertex 42 -5 11.8
      vertex 50.0237 -5 12.376
    endloop
  endfacet
  facet normal 0 -1 0
    outer loop
      vertex 50.0237 -5 12.376
      vertex 42 -5 11.8
      vertex 50.0059 -5 12.1884
    endloop
  endfacet
  facet normal 0 -1 0
    outer loop
      vertex 50.0059 -5 12.1884
      vertex 42 -5 11.8
      vertex 50 -5 12
    endloop
  endfacet
  facet normal 0 -1 -0
    outer loop
      vertex 50 -5 12
      vertex 42 -5 11.8
      vertex 50.0059 -5 11.8116
    endloop
  endfacet
  facet normal 0 -1 -0
    outer loop
      vertex 50.0059 -5 11.8116
      vertex 42 -5 11.8
      vertex 50.007 -5 11.8
    endloop
  endfacet
  facet normal 0 -1 0
    outer loop
      vertex 9 -5 35
      vertex 27 -5 15.5
      vertex 59 -5 35
    endloop
  endfacet
  facet normal 0 -1 0
    outer loop
      vertex 17.1 -5 11.9
      vertex 9 -5 35
      vertex 9.6 -5 11.9
    endloop
  endfacet
  facet normal 0 -1 0
    outer loop
      vertex 9 -5 11.8
      vertex 9.6 -5 11.9
      vertex 9 -5 35
    endloop
  endfacet
  facet normal 0 -1 -0
    outer loop
      vertex 9.6 -5 11.9
      vertex 9 -5 11.8
      vertex 9.6 -5 11.8
    endloop
  endfacet
  facet normal 0 -1 0
    outer loop
      vertex 9 -5 35
      vertex -5 -5 40
      vertex -5 -5 35
    endloop
  endfacet
  facet normal 0 -1 0
    outer loop
      vertex 59 -5 35
      vertex -5 -5 40
      vertex 9 -5 35
    endloop
  endfacet
  facet normal 0 -1 0
    outer loop
      vertex -5 -5 40
      vertex 59 -5 35
      vertex 95 -5 40
    endloop
  endfacet
  facet normal 0 -1 -0
    outer loop
      vertex 95 -5 40
      vertex 59 -5 35
      vertex 95 -5 35
    endloop
  endfacet
  facet normal 0 -1 0
    outer loop
      vertex 42 -5 15.5
      vertex 59 -5 35
      vertex 27 -5 15.5
    endloop
  endfacet
  facet normal 0 -1 0
    outer loop
      vertex 52.0729 -5 14.8532
      vertex 59 -5 35
      vertex 42 -5 15.5
    endloop
  endfacet
  facet normal 0 -1 0
    outer loop
      vertex 53.1884 -5 14.9941
      vertex 59 -5 35
      vertex 53 -5 15
    endloop
  endfacet
  facet normal 0 -1 0
    outer loop
      vertex 53.376 -5 14.9763
      vertex 59 -5 35
      vertex 53.1884 -5 14.9941
    endloop
  endfacet
  facet normal 0 -1 0
    outer loop
      vertex 53.5621 -5 14.9469
      vertex 59 -5 35
      vertex 53.376 -5 14.9763
    endloop
  endfacet
  facet normal 0 -1 0
    outer loop
      vertex 53.7461 -5 14.9057
      vertex 59 -5 35
      vertex 53.5621 -5 14.9469
    endloop
  endfacet
  facet normal 0 -1 0
    outer loop
      vertex 53.9271 -5 14.8532
      vertex 59 -5 35
      vertex 53.7461 -5 14.9057
    endloop
  endfacet
  facet normal 0 -1 0
    outer loop
      vertex 54.1044 -5 14.7893
      vertex 59 -5 35
      vertex 53.9271 -5 14.8532
    endloop
  endfacet
  facet normal 0 -1 0
    outer loop
      vertex 54.2773 -5 14.7145
      vertex 59 -5 35
      vertex 54.1044 -5 14.7893
    endloop
  endfacet
  facet normal 0 -1 0
    outer loop
      vertex 54.4453 -5 14.6289
      vertex 59 -5 35
      vertex 54.2773 -5 14.7145
    endloop
  endfacet
  facet normal 0 -1 0
    outer loop
      vertex 54.6075 -5 14.533
      vertex 59 -5 35
      vertex 54.4453 -5 14.6289
    endloop
  endfacet
  facet normal 0 -1 0
    outer loop
      vertex 54.7634 -5 14.4271
      vertex 59 -5 35
      vertex 54.6075 -5 14.533
    endloop
  endfacet
  facet normal 0 -1 0
    outer loop
      vertex 54.9123 -5 14.3115
      vertex 59 -5 35
      vertex 54.7634 -5 14.4271
    endloop
  endfacet
  facet normal 0 -1 0
    outer loop
      vertex 55.0536 -5 14.1869
      vertex 59 -5 35
      vertex 54.9123 -5 14.3115
    endloop
  endfacet
  facet normal 0 -1 0
    outer loop
      vertex 59 -5 11.8
      vertex 55.0536 -5 14.1869
      vertex 55.1869 -5 14.0536
    endloop
  endfacet
  facet normal 0 -1 0
    outer loop
      vertex 59 -5 11.8
      vertex 55.1869 -5 14.0536
      vertex 55.3115 -5 13.9123
    endloop
  endfacet
  facet normal 0 -1 0
    outer loop
      vertex 59 -5 11.8
      vertex 55.3115 -5 13.9123
      vertex 55.4271 -5 13.7634
    endloop
  endfacet
  facet normal 0 -1 0
    outer loop
      vertex 59 -5 11.8
      vertex 55.4271 -5 13.7634
      vertex 55.533 -5 13.6075
    endloop
  endfacet
  facet normal 0 -1 0
    outer loop
      vertex 59 -5 11.8
      vertex 55.533 -5 13.6075
      vertex 55.6289 -5 13.4453
    endloop
  endfacet
  facet normal 0 -1 0
    outer loop
      vertex 59 -5 11.8
      vertex 55.6289 -5 13.4453
      vertex 55.7145 -5 13.2773
    endloop
  endfacet
  facet normal 0 -1 0
    outer loop
      vertex 59 -5 11.8
      vertex 55.7145 -5 13.2773
      vertex 55.7893 -5 13.1044
    endloop
  endfacet
  facet normal 0 -1 0
    outer loop
      vertex 59 -5 11.8
      vertex 55.7893 -5 13.1044
      vertex 55.8532 -5 12.9271
    endloop
  endfacet
  facet normal 0 -1 0
    outer loop
      vertex 59 -5 11.8
      vertex 55.8532 -5 12.9271
      vertex 55.9058 -5 12.7461
    endloop
  endfacet
  facet normal 0 -1 0
    outer loop
      vertex 59 -5 11.8
      vertex 55.9058 -5 12.7461
      vertex 55.9469 -5 12.5621
    endloop
  endfacet
  facet normal 0 -1 0
    outer loop
      vertex 59 -5 11.8
      vertex 55.9469 -5 12.5621
      vertex 55.9763 -5 12.376
    endloop
  endfacet
  facet normal 0 -1 0
    outer loop
      vertex 59 -5 11.8
      vertex 55.9763 -5 12.376
      vertex 55.9941 -5 12.1884
    endloop
  endfacet
  facet normal 0 -1 0
    outer loop
      vertex 59 -5 11.8
      vertex 55.9941 -5 12.1884
      vertex 56 -5 12
    endloop
  endfacet
  facet normal 0 -1 0
    outer loop
      vertex 59 -5 11.8
      vertex 56 -5 12
      vertex 55.9941 -5 11.8116
    endloop
  endfacet
  facet normal 0 -1 0
    outer loop
      vertex 59 -5 11.8
      vertex 55.9941 -5 11.8116
      vertex 55.993 -5 11.8
    endloop
  endfacet
  facet normal 0 -1 0
    outer loop
      vertex 55.0536 -5 14.1869
      vertex 59 -5 11.8
      vertex 59 -5 35
    endloop
  endfacet
  facet normal 0 -1 0
    outer loop
      vertex 9 -5 35
      vertex 17.1 -5 11.9
      vertex 27 -5 15.5
    endloop
  endfacet
  facet normal 0 -1 0
    outer loop
      vertex 27 -5 11.8
      vertex 17.1 -5 11.9
      vertex 17.1 -5 11.8
    endloop
  endfacet
  facet normal 0 -1 0
    outer loop
      vertex 17.1 -5 11.9
      vertex 27 -5 11.8
      vertex 27 -5 15.5
    endloop
  endfacet
  facet normal -1 0 0
    outer loop
      vertex 90 5 22.6
      vertex 90 0 22.6
      vertex 90 5 22.7
    endloop
  endfacet
  facet normal -1 0 0
    outer loop
      vertex 90 21 22.7
      vertex 90 25.7 22.6
      vertex 90 21 22.6
    endloop
  endfacet
  facet normal -1 0 0
    outer loop
      vertex 90 42.3 22.6
      vertex 90 38.9 22.6
      vertex 90 42.3 24.3
    endloop
  endfacet
  facet normal -1 0 0
    outer loop
      vertex 90 55.5 24.3
      vertex 90 60 22.6
      vertex 90 55.5 22.6
    endloop
  endfacet
  facet normal -1 0 0
    outer loop
      vertex 90 60 22.6
      vertex 90 55.5 24.3
      vertex 90 60 35
    endloop
  endfacet
  facet normal -1 0 0
    outer loop
      vertex 90 42.3 24.3
      vertex 90 60 35
      vertex 90 55.5 24.3
    endloop
  endfacet
  facet normal -1 0 0
    outer loop
      vertex 90 38.9 24.3
      vertex 90 42.3 24.3
      vertex 90 38.9 22.6
    endloop
  endfacet
  facet normal -1 0 0
    outer loop
      vertex 90 42.3 24.3
      vertex 90 38.9 24.3
      vertex 90 60 35
    endloop
  endfacet
  facet normal -1 0 0
    outer loop
      vertex 90 25.7 24.3
      vertex 90 60 35
      vertex 90 38.9 24.3
    endloop
  endfacet
  facet normal -1 0 0
    outer loop
      vertex 90 25.7 22.6
      vertex 90 21 22.7
      vertex 90 25.7 24.3
    endloop
  endfacet
  facet normal -1 0 0
    outer loop
      vertex 90 0 35
      vertex 90 21 22.7
      vertex 90 5 22.7
    endloop
  endfacet
  facet normal -1 0 0
    outer loop
      vertex 90 21 22.7
      vertex 90 0 35
      vertex 90 25.7 24.3
    endloop
  endfacet
  facet normal -1 0 0
    outer loop
      vertex 90 0 35
      vertex 90 5 22.7
      vertex 90 0 22.6
    endloop
  endfacet
  facet normal -1 0 0
    outer loop
      vertex 90 25.7 24.3
      vertex 90 0 35
      vertex 90 60 35
    endloop
  endfacet
  facet normal 0 1 -0
    outer loop
      vertex 95 60 22.6
      vertex 90 60 35
      vertex 95 60 35
    endloop
  endfacet
  facet normal 0 1 0
    outer loop
      vertex 90 60 35
      vertex 95 60 22.6
      vertex 90 60 22.6
    endloop
  endfacet
  facet normal 0 0 -1
    outer loop
      vertex 90 55.5 22.6
      vertex 95 60 22.6
      vertex 95 55.5 22.6
    endloop
  endfacet
  facet normal -0 0 -1
    outer loop
      vertex 95 60 22.6
      vertex 90 55.5 22.6
      vertex 90 60 22.6
    endloop
  endfacet
  facet normal 0 0 -1
    outer loop
      vertex 90 0 22.6
      vertex 95 5 22.6
      vertex 95 0 22.6
    endloop
  endfacet
  facet normal -0 0 -1
    outer loop
      vertex 95 5 22.6
      vertex 90 0 22.6
      vertex 90 5 22.6
    endloop
  endfacet
  facet normal 0 0 -1
    outer loop
      vertex 90 21 22.6
      vertex 95 25.7 22.6
      vertex 95 21 22.6
    endloop
  endfacet
  facet normal -0 0 -1
    outer loop
      vertex 95 25.7 22.6
      vertex 90 21 22.6
      vertex 90 25.7 22.6
    endloop
  endfacet
  facet normal 0 0 -1
    outer loop
      vertex 90 38.9 22.6
      vertex 95 42.3 22.6
      vertex 95 38.9 22.6
    endloop
  endfacet
  facet normal -0 0 -1
    outer loop
      vertex 95 42.3 22.6
      vertex 90 38.9 22.6
      vertex 90 42.3 22.6
    endloop
  endfacet
  facet normal 0 -1 0
    outer loop
      vertex 90 0 22.6
      vertex 95 0 35
      vertex 90 0 35
    endloop
  endfacet
  facet normal 0 -1 -0
    outer loop
      vertex 95 0 35
      vertex 90 0 22.6
      vertex 95 0 22.6
    endloop
  endfacet
  facet normal -1 0 0
    outer loop
      vertex 9 -5 11.8
      vertex 9 0 35
      vertex 9 0 11.8
    endloop
  endfacet
  facet normal -1 -0 0
    outer loop
      vertex 9 0 35
      vertex 9 -5 11.8
      vertex 9 -5 35
    endloop
  endfacet
  facet normal 1 -0 0
    outer loop
      vertex 59 -5 35
      vertex 59 0 11.8
      vertex 59 0 35
    endloop
  endfacet
  facet normal 1 0 0
    outer loop
      vertex 59 0 11.8
      vertex 59 -5 35
      vertex 59 -5 11.8
    endloop
  endfacet
  facet normal 0 1 -0
    outer loop
      vertex 27 0 11.8
      vertex 17.1 0 11.9
      vertex 27 0 15.5
    endloop
  endfacet
  facet normal 0 1 0
    outer loop
      vertex 17.1 0 11.9
      vertex 27 0 11.8
      vertex 17.1 0 11.8
    endloop
  endfacet
  facet normal 0 1 0
    outer loop
      vertex 27 0 15.5
      vertex 59 0 35
      vertex 42 0 15.5
    endloop
  endfacet
  facet normal 0 1 0
    outer loop
      vertex 52.8116 0 14.9941
      vertex 59 0 35
      vertex 53 0 15
    endloop
  endfacet
  facet normal 0 1 0
    outer loop
      vertex 59 0 35
      vertex 53.1884 0 14.9941
      vertex 53 0 15
    endloop
  endfacet
  facet normal 0 1 0
    outer loop
      vertex 59 0 35
      vertex 53.376 0 14.9763
      vertex 53.1884 0 14.9941
    endloop
  endfacet
  facet normal 0 1 0
    outer loop
      vertex 59 0 35
      vertex 53.5621 0 14.9469
      vertex 53.376 0 14.9763
    endloop
  endfacet
  facet normal 0 1 0
    outer loop
      vertex 59 0 35
      vertex 53.7461 0 14.9057
      vertex 53.5621 0 14.9469
    endloop
  endfacet
  facet normal 0 1 0
    outer loop
      vertex 59 0 35
      vertex 53.9271 0 14.8532
      vertex 53.7461 0 14.9057
    endloop
  endfacet
  facet normal 0 1 0
    outer loop
      vertex 59 0 35
      vertex 54.1044 0 14.7893
      vertex 53.9271 0 14.8532
    endloop
  endfacet
  facet normal 0 1 0
    outer loop
      vertex 59 0 35
      vertex 54.2773 0 14.7145
      vertex 54.1044 0 14.7893
    endloop
  endfacet
  facet normal 0 1 0
    outer loop
      vertex 59 0 35
      vertex 54.4453 0 14.6289
      vertex 54.2773 0 14.7145
    endloop
  endfacet
  facet normal 0 1 0
    outer loop
      vertex 59 0 35
      vertex 54.6075 0 14.533
      vertex 54.4453 0 14.6289
    endloop
  endfacet
  facet normal 0 1 0
    outer loop
      vertex 59 0 35
      vertex 54.7634 0 14.4271
      vertex 54.6075 0 14.533
    endloop
  endfacet
  facet normal 0 1 0
    outer loop
      vertex 59 0 35
      vertex 54.9123 0 14.3115
      vertex 54.7634 0 14.4271
    endloop
  endfacet
  facet normal 0 1 0
    outer loop
      vertex 59 0 35
      vertex 55.0536 0 14.1869
      vertex 54.9123 0 14.3115
    endloop
  endfacet
  facet normal 0 1 -0
    outer loop
      vertex 59 0 11.8
      vertex 55.0536 0 14.1869
      vertex 59 0 35
    endloop
  endfacet
  facet normal 0 1 0
    outer loop
      vertex 55.0536 0 14.1869
      vertex 59 0 11.8
      vertex 55.1869 0 14.0536
    endloop
  endfacet
  facet normal 0 1 0
    outer loop
      vertex 55.1869 0 14.0536
      vertex 59 0 11.8
      vertex 55.3115 0 13.9123
    endloop
  endfacet
  facet normal 0 1 0
    outer loop
      vertex 55.3115 0 13.9123
      vertex 59 0 11.8
      vertex 55.4271 0 13.7634
    endloop
  endfacet
  facet normal 0 1 0
    outer loop
      vertex 55.4271 0 13.7634
      vertex 59 0 11.8
      vertex 55.533 0 13.6075
    endloop
  endfacet
  facet normal 0 1 0
    outer loop
      vertex 55.533 0 13.6075
      vertex 59 0 11.8
      vertex 55.6289 0 13.4453
    endloop
  endfacet
  facet normal 0 1 0
    outer loop
      vertex 55.6289 0 13.4453
      vertex 59 0 11.8
      vertex 55.7145 0 13.2773
    endloop
  endfacet
  facet normal 0 1 0
    outer loop
      vertex 55.7145 0 13.2773
      vertex 59 0 11.8
      vertex 55.7893 0 13.1044
    endloop
  endfacet
  facet normal 0 1 0
    outer loop
      vertex 55.7893 0 13.1044
      vertex 59 0 11.8
      vertex 55.8532 0 12.9271
    endloop
  endfacet
  facet normal 0 1 0
    outer loop
      vertex 55.8532 0 12.9271
      vertex 59 0 11.8
      vertex 55.9058 0 12.7461
    endloop
  endfacet
  facet normal 0 1 0
    outer loop
      vertex 55.9058 0 12.7461
      vertex 59 0 11.8
      vertex 55.9469 0 12.5621
    endloop
  endfacet
  facet normal 0 1 0
    outer loop
      vertex 55.9469 0 12.5621
      vertex 59 0 11.8
      vertex 55.9763 0 12.376
    endloop
  endfacet
  facet normal 0 1 0
    outer loop
      vertex 55.9763 0 12.376
      vertex 59 0 11.8
      vertex 55.9941 0 12.1884
    endloop
  endfacet
  facet normal 0 1 0
    outer loop
      vertex 55.9941 0 12.1884
      vertex 59 0 11.8
      vertex 56 0 12
    endloop
  endfacet
  facet normal 0 1 0
    outer loop
      vertex 56 0 12
      vertex 59 0 11.8
      vertex 55.9941 0 11.8116
    endloop
  endfacet
  facet normal 0 1 0
    outer loop
      vertex 55.9941 0 11.8116
      vertex 59 0 11.8
      vertex 55.993 0 11.8
    endloop
  endfacet
  facet normal 0 1 0
    outer loop
      vertex 59 0 35
      vertex 27 0 15.5
      vertex 9 0 35
    endloop
  endfacet
  facet normal 0 1 -0
    outer loop
      vertex 17.1 0 11.9
      vertex 9 0 35
      vertex 27 0 15.5
    endloop
  endfacet
  facet normal 0 1 -0
    outer loop
      vertex 9.6 0 11.9
      vertex 9 0 35
      vertex 17.1 0 11.9
    endloop
  endfacet
  facet normal 0 1 0
    outer loop
      vertex 9 0 11.8
      vertex 9.6 0 11.9
      vertex 9.6 0 11.8
    endloop
  endfacet
  facet normal 0 1 0
    outer loop
      vertex 9.6 0 11.9
      vertex 9 0 11.8
      vertex 9 0 35
    endloop
  endfacet
  facet normal 0 1 0
    outer loop
      vertex 52.624 0 14.9763
      vertex 59 0 35
      vertex 52.8116 0 14.9941
    endloop
  endfacet
  facet normal 0 1 0
    outer loop
      vertex 52.4379 0 14.9469
      vertex 59 0 35
      vertex 52.624 0 14.9763
    endloop
  endfacet
  facet normal 0 1 0
    outer loop
      vertex 52.2539 0 14.9057
      vertex 59 0 35
      vertex 52.4379 0 14.9469
    endloop
  endfacet
  facet normal 0 1 0
    outer loop
      vertex 52.0729 0 14.8532
      vertex 59 0 35
      vertex 52.2539 0 14.9057
    endloop
  endfacet
  facet normal 0 1 0
    outer loop
      vertex 59 0 35
      vertex 52.0729 0 14.8532
      vertex 42 0 15.5
    endloop
  endfacet
  facet normal 0 1 -0
    outer loop
      vertex 51.8956 0 14.7893
      vertex 42 0 15.5
      vertex 52.0729 0 14.8532
    endloop
  endfacet
  facet normal 0 1 -0
    outer loop
      vertex 51.7227 0 14.7145
      vertex 42 0 15.5
      vertex 51.8956 0 14.7893
    endloop
  endfacet
  facet normal 0 1 -0
    outer loop
      vertex 51.5547 0 14.6289
      vertex 42 0 15.5
      vertex 51.7227 0 14.7145
    endloop
  endfacet
  facet normal 0 1 -0
    outer loop
      vertex 51.3925 0 14.533
      vertex 42 0 15.5
      vertex 51.5547 0 14.6289
    endloop
  endfacet
  facet normal 0 1 -0
    outer loop
      vertex 51.2366 0 14.4271
      vertex 42 0 15.5
      vertex 51.3925 0 14.533
    endloop
  endfacet
  facet normal 0 1 -0
    outer loop
      vertex 51.0877 0 14.3115
      vertex 42 0 15.5
      vertex 51.2366 0 14.4271
    endloop
  endfacet
  facet normal 0 1 -0
    outer loop
      vertex 50.9464 0 14.1869
      vertex 42 0 15.5
      vertex 51.0877 0 14.3115
    endloop
  endfacet
  facet normal 0 1 -0
    outer loop
      vertex 50.8131 0 14.0536
      vertex 42 0 15.5
      vertex 50.9464 0 14.1869
    endloop
  endfacet
  facet normal 0 1 -0
    outer loop
      vertex 50.6885 0 13.9123
      vertex 42 0 15.5
      vertex 50.8131 0 14.0536
    endloop
  endfacet
  facet normal 0 1 -0
    outer loop
      vertex 50.5729 0 13.7634
      vertex 42 0 15.5
      vertex 50.6885 0 13.9123
    endloop
  endfacet
  facet normal 0 1 -0
    outer loop
      vertex 50.467 0 13.6075
      vertex 42 0 15.5
      vertex 50.5729 0 13.7634
    endloop
  endfacet
  facet normal 0 1 -0
    outer loop
      vertex 50.3711 0 13.4453
      vertex 42 0 15.5
      vertex 50.467 0 13.6075
    endloop
  endfacet
  facet normal 0 1 -0
    outer loop
      vertex 50.2855 0 13.2773
      vertex 42 0 15.5
      vertex 50.3711 0 13.4453
    endloop
  endfacet
  facet normal 0 1 -0
    outer loop
      vertex 50.2107 0 13.1044
      vertex 42 0 15.5
      vertex 50.2855 0 13.2773
    endloop
  endfacet
  facet normal 0 1 -0
    outer loop
      vertex 50.1468 0 12.9271
      vertex 42 0 15.5
      vertex 50.2107 0 13.1044
    endloop
  endfacet
  facet normal 0 1 -0
    outer loop
      vertex 50.0942 0 12.7461
      vertex 42 0 15.5
      vertex 50.1468 0 12.9271
    endloop
  endfacet
  facet normal 0 1 0
    outer loop
      vertex 42 0 11.8
      vertex 50.0942 0 12.7461
      vertex 50.0531 0 12.5621
    endloop
  endfacet
  facet normal 0 1 0
    outer loop
      vertex 42 0 11.8
      vertex 50.0531 0 12.5621
      vertex 50.0237 0 12.376
    endloop
  endfacet
  facet normal 0 1 0
    outer loop
      vertex 42 0 11.8
      vertex 50.0237 0 12.376
      vertex 50.0059 0 12.1884
    endloop
  endfacet
  facet normal 0 1 0
    outer loop
      vertex 42 0 11.8
      vertex 50.0059 0 12.1884
      vertex 50 0 12
    endloop
  endfacet
  facet normal 0 1 0
    outer loop
      vertex 42 0 11.8
      vertex 50 0 12
      vertex 50.0059 0 11.8116
    endloop
  endfacet
  facet normal 0 1 0
    outer loop
      vertex 42 0 11.8
      vertex 50.0059 0 11.8116
      vertex 50.007 0 11.8
    endloop
  endfacet
  facet normal 0 1 0
    outer loop
      vertex 50.0942 0 12.7461
      vertex 42 0 11.8
      vertex 42 0 15.5
    endloop
  endfacet
  facet normal 0 0 -1
    outer loop
      vertex 9 -5 11.8
      vertex 9.6 0 11.8
      vertex 9.6 -5 11.8
    endloop
  endfacet
  facet normal -0 0 -1
    outer loop
      vertex 9.6 0 11.8
      vertex 9 -5 11.8
      vertex 9 0 11.8
    endloop
  endfacet
  facet normal 0 0 -1
    outer loop
      vertex 55.993 -5 11.8
      vertex 59 0 11.8
      vertex 59 -5 11.8
    endloop
  endfacet
  facet normal -0 0 -1
    outer loop
      vertex 59 0 11.8
      vertex 55.993 -5 11.8
      vertex 55.993 0 11.8
    endloop
  endfacet
  facet normal 0 0 -1
    outer loop
      vertex 17.1 -5 11.8
      vertex 27 0 11.8
      vertex 27 -5 11.8
    endloop
  endfacet
  facet normal -0 0 -1
    outer loop
      vertex 27 0 11.8
      vertex 17.1 -5 11.8
      vertex 17.1 0 11.8
    endloop
  endfacet
  facet normal 0 0 -1
    outer loop
      vertex 42 -5 11.8
      vertex 50.007 0 11.8
      vertex 50.007 -5 11.8
    endloop
  endfacet
  facet normal -0 0 -1
    outer loop
      vertex 50.007 0 11.8
      vertex 42 -5 11.8
      vertex 42 0 11.8
    endloop
  endfacet
  facet normal 1 -0 0
    outer loop
      vertex 9.6 -5 11.9
      vertex 9.6 0 11.8
      vertex 9.6 0 11.9
    endloop
  endfacet
  facet normal 1 0 0
    outer loop
      vertex 9.6 0 11.8
      vertex 9.6 -5 11.9
      vertex 9.6 -5 11.8
    endloop
  endfacet
  facet normal 0 0 -1
    outer loop
      vertex 9.6 -5 11.9
      vertex 17.1 0 11.9
      vertex 17.1 -5 11.9
    endloop
  endfacet
  facet normal -0 0 -1
    outer loop
      vertex 17.1 0 11.9
      vertex 9.6 -5 11.9
      vertex 9.6 0 11.9
    endloop
  endfacet
  facet normal -1 0 0
    outer loop
      vertex 17.1 -5 11.8
      vertex 17.1 0 11.9
      vertex 17.1 0 11.8
    endloop
  endfacet
  facet normal -1 -0 0
    outer loop
      vertex 17.1 0 11.9
      vertex 17.1 -5 11.8
      vertex 17.1 -5 11.9
    endloop
  endfacet
  facet normal 1 -0 0
    outer loop
      vertex 27 -5 15.5
      vertex 27 0 11.8
      vertex 27 0 15.5
    endloop
  endfacet
  facet normal 1 0 0
    outer loop
      vertex 27 0 11.8
      vertex 27 -5 15.5
      vertex 27 -5 11.8
    endloop
  endfacet
  facet normal 0 0 -1
    outer loop
      vertex 27 -5 15.5
      vertex 42 0 15.5
      vertex 42 -5 15.5
    endloop
  endfacet
  facet normal -0 0 -1
    outer loop
      vertex 42 0 15.5
      vertex 27 -5 15.5
      vertex 27 0 15.5
    endloop
  endfacet
  facet normal -1 0 0
    outer loop
      vertex 42 -5 11.8
      vertex 42 0 15.5
      vertex 42 0 11.8
    endloop
  endfacet
  facet normal -1 -0 0
    outer loop
      vertex 42 0 15.5
      vertex 42 -5 11.8
      vertex 42 -5 15.5
    endloop
  endfacet
  facet normal -0.999506 0 -0.0314141
    outer loop
      vertex 56 -5 12
      vertex 55.9941 0 12.1884
      vertex 56 0 12
    endloop
  endfacet
  facet normal -0.999506 -0 -0.0314141
    outer loop
      vertex 55.9941 0 12.1884
      vertex 56 -5 12
      vertex 55.9941 -5 12.1884
    endloop
  endfacet
  facet normal -0.98769 0 -0.156422
    outer loop
      vertex 55.9763 -5 12.376
      vertex 55.9469 0 12.5621
      vertex 55.9763 0 12.376
    endloop
  endfacet
  facet normal -0.98769 -0 -0.156422
    outer loop
      vertex 55.9469 0 12.5621
      vertex 55.9763 -5 12.376
      vertex 55.9469 -5 12.5621
    endloop
  endfacet
  facet normal 0.0314142 0 -0.999506
    outer loop
      vertex 52.8116 -5 14.9941
      vertex 53 0 15
      vertex 53 -5 15
    endloop
  endfacet
  facet normal 0.0314142 0 -0.999506
    outer loop
      vertex 53 0 15
      vertex 52.8116 -5 14.9941
      vertex 52.8116 0 14.9941
    endloop
  endfacet
  facet normal -0.661303 0 -0.750119
    outer loop
      vertex 54.9123 -5 14.3115
      vertex 55.0536 0 14.1869
      vertex 55.0536 -5 14.1869
    endloop
  endfacet
  facet normal -0.661303 0 -0.750119
    outer loop
      vertex 55.0536 0 14.1869
      vertex 54.9123 -5 14.3115
      vertex 54.9123 0 14.3115
    endloop
  endfacet
  facet normal 0.75011 0 -0.661313
    outer loop
      vertex 50.8131 -5 14.0536
      vertex 50.6885 0 13.9123
      vertex 50.8131 0 14.0536
    endloop
  endfacet
  facet normal 0.75011 0 -0.661313
    outer loop
      vertex 50.6885 0 13.9123
      vertex 50.8131 -5 14.0536
      vertex 50.6885 -5 13.9123
    endloop
  endfacet
  facet normal 0.453981 0 -0.891011
    outer loop
      vertex 51.5547 -5 14.6289
      vertex 51.7227 0 14.7145
      vertex 51.7227 -5 14.7145
    endloop
  endfacet
  facet normal 0.453981 0 -0.891011
    outer loop
      vertex 51.7227 0 14.7145
      vertex 51.5547 -5 14.6289
      vertex 51.5547 0 14.6289
    endloop
  endfacet
  facet normal -0.89101 0 -0.453983
    outer loop
      vertex 55.7145 -5 13.2773
      vertex 55.6289 0 13.4453
      vertex 55.7145 0 13.2773
    endloop
  endfacet
  facet normal -0.89101 -0 -0.453983
    outer loop
      vertex 55.6289 0 13.4453
      vertex 55.7145 -5 13.2773
      vertex 55.6289 -5 13.4453
    endloop
  endfacet
  facet normal 0.827086 0 -0.562075
    outer loop
      vertex 50.5729 -5 13.7634
      vertex 50.467 0 13.6075
      vertex 50.5729 0 13.7634
    endloop
  endfacet
  facet normal 0.827086 0 -0.562075
    outer loop
      vertex 50.467 0 13.6075
      vertex 50.5729 -5 13.7634
      vertex 50.467 -5 13.6075
    endloop
  endfacet
  facet normal -0.790151 0 -0.612912
    outer loop
      vertex 55.4271 -5 13.7634
      vertex 55.3115 0 13.9123
      vertex 55.4271 0 13.7634
    endloop
  endfacet
  facet normal -0.790151 -0 -0.612912
    outer loop
      vertex 55.3115 0 13.9123
      vertex 55.4271 -5 13.7634
      vertex 55.3115 -5 13.9123
    endloop
  endfacet
  facet normal -0.0314142 0 -0.999506
    outer loop
      vertex 53 -5 15
      vertex 53.1884 0 14.9941
      vertex 53.1884 -5 14.9941
    endloop
  endfacet
  facet normal -0.0314142 0 -0.999506
    outer loop
      vertex 53.1884 0 14.9941
      vertex 53 -5 15
      vertex 53 0 15
    endloop
  endfacet
  facet normal 0.860734 0 -0.509055
    outer loop
      vertex 50.467 -5 13.6075
      vertex 50.3711 0 13.4453
      vertex 50.467 0 13.6075
    endloop
  endfacet
  facet normal 0.860734 0 -0.509055
    outer loop
      vertex 50.3711 0 13.4453
      vertex 50.467 -5 13.6075
      vertex 50.3711 -5 13.4453
    endloop
  endfacet
  facet normal 0.999506 -0 0.0314139
    outer loop
      vertex 50 -5 12
      vertex 50.0059 0 11.8116
      vertex 50 0 12
    endloop
  endfacet
  facet normal 0.999506 0 0.0314139
    outer loop
      vertex 50.0059 0 11.8116
      vertex 50 -5 12
      vertex 50.0059 -5 11.8116
    endloop
  endfacet
  facet normal 0.562089 0 -0.827077
    outer loop
      vertex 51.2366 -5 14.4271
      vertex 51.3925 0 14.533
      vertex 51.3925 -5 14.533
    endloop
  endfacet
  facet normal 0.562089 0 -0.827077
    outer loop
      vertex 51.3925 0 14.533
      vertex 51.2366 -5 14.4271
      vertex 51.2366 0 14.4271
    endloop
  endfacet
  facet normal 0.612901 0 -0.79016
    outer loop
      vertex 51.0877 -5 14.3115
      vertex 51.2366 0 14.4271
      vertex 51.2366 -5 14.4271
    endloop
  endfacet
  facet normal 0.612901 0 -0.79016
    outer loop
      vertex 51.2366 0 14.4271
      vertex 51.0877 -5 14.3115
      vertex 51.0877 0 14.3115
    endloop
  endfacet
  facet normal 0.397151 0 -0.917753
    outer loop
      vertex 51.7227 -5 14.7145
      vertex 51.8956 0 14.7893
      vertex 51.8956 -5 14.7893
    endloop
  endfacet
  facet normal 0.397151 0 -0.917753
    outer loop
      vertex 51.8956 0 14.7893
      vertex 51.7227 -5 14.7145
      vertex 51.7227 0 14.7145
    endloop
  endfacet
  facet normal -0.999506 0 0.0314139
    outer loop
      vertex 55.9941 -5 11.8116
      vertex 56 0 12
      vertex 55.9941 0 11.8116
    endloop
  endfacet
  facet normal -0.999506 0 0.0314139
    outer loop
      vertex 56 0 12
      vertex 55.9941 -5 11.8116
      vertex 56 -5 12
    endloop
  endfacet
  facet normal -0.960291 0 -0.279
    outer loop
      vertex 55.9058 -5 12.7461
      vertex 55.8532 0 12.9271
      vertex 55.9058 0 12.7461
    endloop
  endfacet
  facet normal -0.960291 -0 -0.279
    outer loop
      vertex 55.8532 0 12.9271
      vertex 55.9058 -5 12.7461
      vertex 55.8532 -5 12.9271
    endloop
  endfacet
  facet normal -0.975918 0 -0.218137
    outer loop
      vertex 55.9469 -5 12.5621
      vertex 55.9058 0 12.7461
      vertex 55.9469 0 12.5621
    endloop
  endfacet
  facet normal -0.975918 -0 -0.218137
    outer loop
      vertex 55.9058 0 12.7461
      vertex 55.9469 -5 12.5621
      vertex 55.9058 -5 12.7461
    endloop
  endfacet
  facet normal -0.917755 0 -0.397148
    outer loop
      vertex 55.7893 -5 13.1044
      vertex 55.7145 0 13.2773
      vertex 55.7893 0 13.1044
    endloop
  endfacet
  facet normal -0.917755 -0 -0.397148
    outer loop
      vertex 55.7145 0 13.2773
      vertex 55.7893 -5 13.1044
      vertex 55.7145 -5 13.2773
    endloop
  endfacet
  facet normal -0.75011 0 -0.661313
    outer loop
      vertex 55.3115 -5 13.9123
      vertex 55.1869 0 14.0536
      vertex 55.3115 0 13.9123
    endloop
  endfacet
  facet normal -0.75011 -0 -0.661313
    outer loop
      vertex 55.1869 0 14.0536
      vertex 55.3115 -5 13.9123
      vertex 55.1869 -5 14.0536
    endloop
  endfacet
  facet normal -0.278992 0 -0.960293
    outer loop
      vertex 53.7461 -5 14.9057
      vertex 53.9271 0 14.8532
      vertex 53.9271 -5 14.8532
    endloop
  endfacet
  facet normal -0.278992 0 -0.960293
    outer loop
      vertex 53.9271 0 14.8532
      vertex 53.7461 -5 14.9057
      vertex 53.7461 0 14.9057
    endloop
  endfacet
  facet normal -0.156434 0 -0.987688
    outer loop
      vertex 53.376 -5 14.9763
      vertex 53.5621 0 14.9469
      vertex 53.5621 -5 14.9469
    endloop
  endfacet
  facet normal -0.156434 0 -0.987688
    outer loop
      vertex 53.5621 0 14.9469
      vertex 53.376 -5 14.9763
      vertex 53.376 0 14.9763
    endloop
  endfacet
  facet normal -0.218137 0 -0.975918
    outer loop
      vertex 53.5621 -5 14.9469
      vertex 53.7461 0 14.9057
      vertex 53.7461 -5 14.9057
    endloop
  endfacet
  facet normal -0.218137 0 -0.975918
    outer loop
      vertex 53.7461 0 14.9057
      vertex 53.5621 -5 14.9469
      vertex 53.5621 0 14.9469
    endloop
  endfacet
  facet normal -0.338742 0 -0.940879
    outer loop
      vertex 53.9271 -5 14.8532
      vertex 54.1044 0 14.7893
      vertex 54.1044 -5 14.7893
    endloop
  endfacet
  facet normal -0.338742 0 -0.940879
    outer loop
      vertex 54.1044 0 14.7893
      vertex 53.9271 -5 14.8532
      vertex 53.9271 0 14.8532
    endloop
  endfacet
  facet normal -0.45399 0 -0.891007
    outer loop
      vertex 54.2773 -5 14.7145
      vertex 54.4453 0 14.6289
      vertex 54.4453 -5 14.6289
    endloop
  endfacet
  facet normal -0.45399 0 -0.891007
    outer loop
      vertex 54.4453 0 14.6289
      vertex 54.2773 -5 14.7145
      vertex 54.2773 0 14.7145
    endloop
  endfacet
  facet normal -0.509042 0 -0.860742
    outer loop
      vertex 54.4453 -5 14.6289
      vertex 54.6075 0 14.533
      vertex 54.6075 -5 14.533
    endloop
  endfacet
  facet normal -0.509042 0 -0.860742
    outer loop
      vertex 54.6075 0 14.533
      vertex 54.4453 -5 14.6289
      vertex 54.4453 0 14.6289
    endloop
  endfacet
  facet normal -0.612911 0 -0.790152
    outer loop
      vertex 54.7634 -5 14.4271
      vertex 54.9123 0 14.3115
      vertex 54.9123 -5 14.3115
    endloop
  endfacet
  facet normal -0.612911 0 -0.790152
    outer loop
      vertex 54.9123 0 14.3115
      vertex 54.7634 -5 14.4271
      vertex 54.7634 0 14.4271
    endloop
  endfacet
  facet normal 0.940876 0 -0.338751
    outer loop
      vertex 50.2107 -5 13.1044
      vertex 50.1468 0 12.9271
      vertex 50.2107 0 13.1044
    endloop
  endfacet
  facet normal 0.940876 0 -0.338751
    outer loop
      vertex 50.1468 0 12.9271
      vertex 50.2107 -5 13.1044
      vertex 50.1468 -5 12.9271
    endloop
  endfacet
  facet normal 0.89101 0 -0.453983
    outer loop
      vertex 50.3711 -5 13.4453
      vertex 50.2855 0 13.2773
      vertex 50.3711 0 13.4453
    endloop
  endfacet
  facet normal 0.89101 0 -0.453983
    outer loop
      vertex 50.2855 0 13.2773
      vertex 50.3711 -5 13.4453
      vertex 50.2855 -5 13.2773
    endloop
  endfacet
  facet normal 0.960297 0 -0.278981
    outer loop
      vertex 50.1468 -5 12.9271
      vertex 50.0942 0 12.7461
      vertex 50.1468 0 12.9271
    endloop
  endfacet
  facet normal 0.960297 0 -0.278981
    outer loop
      vertex 50.0942 0 12.7461
      vertex 50.1468 -5 12.9271
      vertex 50.0942 -5 12.7461
    endloop
  endfacet
  facet normal 0.987687 0 -0.156442
    outer loop
      vertex 50.0531 -5 12.5621
      vertex 50.0237 0 12.376
      vertex 50.0531 0 12.5621
    endloop
  endfacet
  facet normal 0.987687 0 -0.156442
    outer loop
      vertex 50.0237 0 12.376
      vertex 50.0531 -5 12.5621
      vertex 50.0237 -5 12.376
    endloop
  endfacet
  facet normal 0.975918 0 -0.218137
    outer loop
      vertex 50.0942 -5 12.7461
      vertex 50.0531 0 12.5621
      vertex 50.0942 0 12.7461
    endloop
  endfacet
  facet normal 0.975918 0 -0.218137
    outer loop
      vertex 50.0531 0 12.5621
      vertex 50.0942 -5 12.7461
      vertex 50.0531 -5 12.5621
    endloop
  endfacet
  facet normal 0.995563 0 -0.0940998
    outer loop
      vertex 50.0237 -5 12.376
      vertex 50.0059 0 12.1884
      vertex 50.0237 0 12.376
    endloop
  endfacet
  facet normal 0.995563 0 -0.0940998
    outer loop
      vertex 50.0059 0 12.1884
      vertex 50.0237 -5 12.376
      vertex 50.0059 -5 12.1884
    endloop
  endfacet
  facet normal 0.661313 0 -0.75011
    outer loop
      vertex 50.9464 -5 14.1869
      vertex 51.0877 0 14.3115
      vertex 51.0877 -5 14.3115
    endloop
  endfacet
  facet normal 0.661313 0 -0.75011
    outer loop
      vertex 51.0877 0 14.3115
      vertex 50.9464 -5 14.1869
      vertex 50.9464 0 14.1869
    endloop
  endfacet
  facet normal 0.278992 0 -0.960293
    outer loop
      vertex 52.0729 -5 14.8532
      vertex 52.2539 0 14.9057
      vertex 52.2539 -5 14.9057
    endloop
  endfacet
  facet normal 0.278992 0 -0.960293
    outer loop
      vertex 52.2539 0 14.9057
      vertex 52.0729 -5 14.8532
      vertex 52.0729 0 14.8532
    endloop
  endfacet
  facet normal -0.995561 0 -0.0941199
    outer loop
      vertex 55.9941 -5 12.1884
      vertex 55.9763 0 12.376
      vertex 55.9941 0 12.1884
    endloop
  endfacet
  facet normal -0.995561 -0 -0.0941199
    outer loop
      vertex 55.9763 0 12.376
      vertex 55.9941 -5 12.1884
      vertex 55.9763 -5 12.376
    endloop
  endfacet
  facet normal -0.940883 0 -0.338733
    outer loop
      vertex 55.8532 -5 12.9271
      vertex 55.7893 0 13.1044
      vertex 55.8532 0 12.9271
    endloop
  endfacet
  facet normal -0.940883 -0 -0.338733
    outer loop
      vertex 55.7893 0 13.1044
      vertex 55.8532 -5 12.9271
      vertex 55.7893 -5 13.1044
    endloop
  endfacet
  facet normal -0.707114 0 -0.707099
    outer loop
      vertex 55.1869 -5 14.0536
      vertex 55.0536 0 14.1869
      vertex 55.1869 0 14.0536
    endloop
  endfacet
  facet normal -0.707114 -0 -0.707099
    outer loop
      vertex 55.0536 0 14.1869
      vertex 55.1869 -5 14.0536
      vertex 55.0536 -5 14.1869
    endloop
  endfacet
  facet normal -0.860734 0 -0.509055
    outer loop
      vertex 55.6289 -5 13.4453
      vertex 55.533 0 13.6075
      vertex 55.6289 0 13.4453
    endloop
  endfacet
  facet normal -0.860734 -0 -0.509055
    outer loop
      vertex 55.533 0 13.6075
      vertex 55.6289 -5 13.4453
      vertex 55.533 -5 13.6075
    endloop
  endfacet
  facet normal -0.827086 0 -0.562075
    outer loop
      vertex 55.533 -5 13.6075
      vertex 55.4271 0 13.7634
      vertex 55.533 0 13.6075
    endloop
  endfacet
  facet normal -0.827086 -0 -0.562075
    outer loop
      vertex 55.4271 0 13.7634
      vertex 55.533 -5 13.6075
      vertex 55.4271 -5 13.7634
    endloop
  endfacet
  facet normal -0.0941094 0 -0.995562
    outer loop
      vertex 53.1884 -5 14.9941
      vertex 53.376 0 14.9763
      vertex 53.376 -5 14.9763
    endloop
  endfacet
  facet normal -0.0941094 0 -0.995562
    outer loop
      vertex 53.376 0 14.9763
      vertex 53.1884 -5 14.9941
      vertex 53.1884 0 14.9941
    endloop
  endfacet
  facet normal -0.397151 0 -0.917753
    outer loop
      vertex 54.1044 -5 14.7893
      vertex 54.2773 0 14.7145
      vertex 54.2773 -5 14.7145
    endloop
  endfacet
  facet normal -0.397151 0 -0.917753
    outer loop
      vertex 54.2773 0 14.7145
      vertex 54.1044 -5 14.7893
      vertex 54.1044 0 14.7893
    endloop
  endfacet
  facet normal -0.562079 0 -0.827083
    outer loop
      vertex 54.6075 -5 14.533
      vertex 54.7634 0 14.4271
      vertex 54.7634 -5 14.4271
    endloop
  endfacet
  facet normal -0.562079 0 -0.827083
    outer loop
      vertex 54.7634 0 14.4271
      vertex 54.6075 -5 14.533
      vertex 54.6075 0 14.533
    endloop
  endfacet
  facet normal 0.790151 0 -0.612912
    outer loop
      vertex 50.6885 -5 13.9123
      vertex 50.5729 0 13.7634
      vertex 50.6885 0 13.9123
    endloop
  endfacet
  facet normal 0.790151 0 -0.612912
    outer loop
      vertex 50.5729 0 13.7634
      vertex 50.6885 -5 13.9123
      vertex 50.5729 -5 13.7634
    endloop
  endfacet
  facet normal 0.917755 0 -0.397148
    outer loop
      vertex 50.2855 -5 13.2773
      vertex 50.2107 0 13.1044
      vertex 50.2855 0 13.2773
    endloop
  endfacet
  facet normal 0.917755 0 -0.397148
    outer loop
      vertex 50.2107 0 13.1044
      vertex 50.2855 -5 13.2773
      vertex 50.2107 -5 13.1044
    endloop
  endfacet
  facet normal 0.999506 0 -0.0314141
    outer loop
      vertex 50.0059 -5 12.1884
      vertex 50 0 12
      vertex 50.0059 0 12.1884
    endloop
  endfacet
  facet normal 0.999506 0 -0.0314141
    outer loop
      vertex 50 0 12
      vertex 50.0059 -5 12.1884
      vertex 50 -5 12
    endloop
  endfacet
  facet normal 0.707114 0 -0.707099
    outer loop
      vertex 50.9464 -5 14.1869
      vertex 50.8131 0 14.0536
      vertex 50.9464 0 14.1869
    endloop
  endfacet
  facet normal 0.707114 0 -0.707099
    outer loop
      vertex 50.8131 0 14.0536
      vertex 50.9464 -5 14.1869
      vertex 50.8131 -5 14.0536
    endloop
  endfacet
  facet normal 0.509042 0 -0.860742
    outer loop
      vertex 51.3925 -5 14.533
      vertex 51.5547 0 14.6289
      vertex 51.5547 -5 14.6289
    endloop
  endfacet
  facet normal 0.509042 0 -0.860742
    outer loop
      vertex 51.5547 0 14.6289
      vertex 51.3925 -5 14.533
      vertex 51.3925 0 14.533
    endloop
  endfacet
  facet normal 0.338742 0 -0.940879
    outer loop
      vertex 51.8956 -5 14.7893
      vertex 52.0729 0 14.8532
      vertex 52.0729 -5 14.8532
    endloop
  endfacet
  facet normal 0.338742 0 -0.940879
    outer loop
      vertex 52.0729 0 14.8532
      vertex 51.8956 -5 14.7893
      vertex 51.8956 0 14.7893
    endloop
  endfacet
  facet normal 0.218142 0 -0.975917
    outer loop
      vertex 52.2539 -5 14.9057
      vertex 52.4379 0 14.9469
      vertex 52.4379 -5 14.9469
    endloop
  endfacet
  facet normal 0.218142 0 -0.975917
    outer loop
      vertex 52.4379 0 14.9469
      vertex 52.2539 -5 14.9057
      vertex 52.2539 0 14.9057
    endloop
  endfacet
  facet normal 0.0941094 0 -0.995562
    outer loop
      vertex 52.624 -5 14.9763
      vertex 52.8116 0 14.9941
      vertex 52.8116 -5 14.9941
    endloop
  endfacet
  facet normal 0.0941094 0 -0.995562
    outer loop
      vertex 52.8116 0 14.9941
      vertex 52.624 -5 14.9763
      vertex 52.624 0 14.9763
    endloop
  endfacet
  facet normal 0.156431 0 -0.987689
    outer loop
      vertex 52.4379 -5 14.9469
      vertex 52.624 0 14.9763
      vertex 52.624 -5 14.9763
    endloop
  endfacet
  facet normal 0.156431 0 -0.987689
    outer loop
      vertex 52.624 0 14.9763
      vertex 52.4379 -5 14.9469
      vertex 52.4379 0 14.9469
    endloop
  endfacet
  facet normal -0.995567 0 0.0940539
    outer loop
      vertex 55.993 -5 11.8
      vertex 55.9941 0 11.8116
      vertex 55.993 0 11.8
    endloop
  endfacet
  facet normal -0.995567 0 0.0940539
    outer loop
      vertex 55.9941 0 11.8116
      vertex 55.993 -5 11.8
      vertex 55.9941 -5 11.8116
    endloop
  endfacet
  facet normal 0.995567 -0 0.0940539
    outer loop
      vertex 50.0059 -5 11.8116
      vertex 50.007 0 11.8
      vertex 50.0059 0 11.8116
    endloop
  endfacet
  facet normal 0.995567 0 0.0940539
    outer loop
      vertex 50.007 0 11.8
      vertex 50.0059 -5 11.8116
      vertex 50.007 -5 11.8
    endloop
  endfacet
  facet normal 0 0 -1
    outer loop
      vertex 90 5 22.7
      vertex 95 21 22.7
      vertex 95 5 22.7
    endloop
  endfacet
  facet normal -0 0 -1
    outer loop
      vertex 95 21 22.7
      vertex 90 5 22.7
      vertex 90 21 22.7
    endloop
  endfacet
  facet normal 0 1 -0
    outer loop
      vertex 95 5 22.6
      vertex 90 5 22.7
      vertex 95 5 22.7
    endloop
  endfacet
  facet normal 0 1 0
    outer loop
      vertex 90 5 22.7
      vertex 95 5 22.6
      vertex 90 5 22.6
    endloop
  endfacet
  facet normal 0 -1 0
    outer loop
      vertex 90 21 22.6
      vertex 95 21 22.7
      vertex 90 21 22.7
    endloop
  endfacet
  facet normal 0 -1 -0
    outer loop
      vertex 95 21 22.7
      vertex 90 21 22.6
      vertex 95 21 22.6
    endloop
  endfacet
  facet normal 0 0 -1
    outer loop
      vertex 90 25.7 24.3
      vertex 95 38.9 24.3
      vertex 95 25.7 24.3
    endloop
  endfacet
  facet normal -0 0 -1
    outer loop
      vertex 95 38.9 24.3
      vertex 90 25.7 24.3
      vertex 90 38.9 24.3
    endloop
  endfacet
  facet normal 0 -1 0
    outer loop
      vertex 90 38.9 22.6
      vertex 95 38.9 24.3
      vertex 90 38.9 24.3
    endloop
  endfacet
  facet normal 0 -1 -0
    outer loop
      vertex 95 38.9 24.3
      vertex 90 38.9 22.6
      vertex 95 38.9 22.6
    endloop
  endfacet
  facet normal 0 1 -0
    outer loop
      vertex 95 25.7 22.6
      vertex 90 25.7 24.3
      vertex 95 25.7 24.3
    endloop
  endfacet
  facet normal 0 1 0
    outer loop
      vertex 90 25.7 24.3
      vertex 95 25.7 22.6
      vertex 90 25.7 22.6
    endloop
  endfacet
  facet normal 0 0 -1
    outer loop
      vertex 90 42.3 24.3
      vertex 95 55.5 24.3
      vertex 95 42.3 24.3
    endloop
  endfacet
  facet normal -0 0 -1
    outer loop
      vertex 95 55.5 24.3
      vertex 90 42.3 24.3
      vertex 90 55.5 24.3
    endloop
  endfacet
  facet normal 0 1 -0
    outer loop
      vertex 95 42.3 22.6
      vertex 90 42.3 24.3
      vertex 95 42.3 24.3
    endloop
  endfacet
  facet normal 0 1 0
    outer loop
      vertex 90 42.3 24.3
      vertex 95 42.3 22.6
      vertex 90 42.3 22.6
    endloop
  endfacet
  facet normal 0 -1 0
    outer loop
      vertex 90 55.5 22.6
      vertex 95 55.5 24.3
      vertex 90 55.5 24.3
    endloop
  endfacet
  facet normal 0 -1 -0
    outer loop
      vertex 95 55.5 24.3
      vertex 90 55.5 22.6
      vertex 95 55.5 22.6
    endloop
  endfacet
  facet normal 1 -0 0
    outer loop
      vertex 6.5 50 40
      vertex 6.5 61.2 35
      vertex 6.5 61.2 40
    endloop
  endfacet
  facet normal 1 0 0
    outer loop
      vertex 6.5 61.2 35
      vertex 6.5 50 40
      vertex 6.5 50 35
    endloop
  endfacet
  facet normal -1 0 0
    outer loop
      vertex 63.3 50 35
      vertex 63.3 61.2 40
      vertex 63.3 61.2 35
    endloop
  endfacet
  facet normal -1 -0 0
    outer loop
      vertex 63.3 61.2 40
      vertex 63.3 50 35
      vertex 63.3 50 40
    endloop
  endfacet
  facet normal 0 -1 0
    outer loop
      vertex 6.5 61.2 35
      vertex 63.3 61.2 40
      vertex 6.5 61.2 40
    endloop
  endfacet
  facet normal 0 -1 -0
    outer loop
      vertex 63.3 61.2 40
      vertex 6.5 61.2 35
      vertex 63.3 61.2 35
    endloop
  endfacet
  facet normal 0 1 -0
    outer loop
      vertex 63.3 50 35
      vertex 6.5 50 40
      vertex 63.3 50 40
    endloop
  endfacet
  facet normal 0 1 0
    outer loop
      vertex 6.5 50 40
      vertex 63.3 50 35
      vertex 6.5 50 35
    endloop
  endfacet
endsolid OpenSCAD_Model
