solid OpenSCAD_Model
  facet normal 0.994522 0.104529 0
    outer loop
      vertex 60 0 2.5
      vertex 58.6889 12.4747 -2.5
      vertex 58.6889 12.4747 2.5
    endloop
  endfacet
  facet normal 0.994522 0.104529 0
    outer loop
      vertex 58.6889 12.4747 -2.5
      vertex 60 0 2.5
      vertex 60 0 -2.5
    endloop
  endfacet
  facet normal -0.994522 0.104529 0
    outer loop
      vertex -60 0 -2.5
      vertex -58.6889 12.4747 2.5
      vertex -58.6889 12.4747 -2.5
    endloop
  endfacet
  facet normal -0.994522 0.104529 0
    outer loop
      vertex -58.6889 12.4747 2.5
      vertex -60 0 -2.5
      vertex -60 0 2.5
    endloop
  endfacet
  facet normal 0 -1 0
    outer loop
      vertex -6.27171 -59.6713 -2.5
      vertex 6.27171 -59.6713 2.5
      vertex -6.27171 -59.6713 2.5
    endloop
  endfacet
  facet normal 0 -1 -0
    outer loop
      vertex 6.27171 -59.6713 2.5
      vertex -6.27171 -59.6713 -2.5
      vertex 6.27171 -59.6713 -2.5
    endloop
  endfacet
  facet normal -0.866025 0.5 0
    outer loop
      vertex -54.8127 24.4042 -2.5
      vertex -50 32.7401 2.5
      vertex -50 32.7401 -2.5
    endloop
  endfacet
  facet normal -0.866025 0.5 0
    outer loop
      vertex -50 32.7401 2.5
      vertex -54.8127 24.4042 -2.5
      vertex -54.8127 24.4042 2.5
    endloop
  endfacet
  facet normal 0.866025 0.5 0
    outer loop
      vertex 54.8127 24.4042 2.5
      vertex 50 32.7401 -2.5
      vertex 50 32.7401 2.5
    endloop
  endfacet
  facet normal 0.866025 0.5 0
    outer loop
      vertex 50 32.7401 -2.5
      vertex 54.8127 24.4042 2.5
      vertex 54.8127 24.4042 -2.5
    endloop
  endfacet
  facet normal 0.951057 0.309017 0
    outer loop
      vertex 58.6889 12.4747 2.5
      vertex 54.8127 24.4042 -2.5
      vertex 54.8127 24.4042 2.5
    endloop
  endfacet
  facet normal 0.951057 0.309017 0
    outer loop
      vertex 54.8127 24.4042 -2.5
      vertex 58.6889 12.4747 2.5
      vertex 58.6889 12.4747 -2.5
    endloop
  endfacet
  facet normal -0.951057 0.309017 0
    outer loop
      vertex -58.6889 12.4747 -2.5
      vertex -54.8127 24.4042 2.5
      vertex -54.8127 24.4042 -2.5
    endloop
  endfacet
  facet normal -0.951057 0.309017 0
    outer loop
      vertex -54.8127 24.4042 2.5
      vertex -58.6889 12.4747 -2.5
      vertex -58.6889 12.4747 2.5
    endloop
  endfacet
  facet normal 0 0 1
    outer loop
      vertex -54.8127 24.4042 2.5
      vertex -50 26.773 2.5
      vertex -50 32.7401 2.5
    endloop
  endfacet
  facet normal 0 0 1
    outer loop
      vertex -50 26.773 2.5
      vertex -54.8127 24.4042 2.5
      vertex -52.0721 23.184 2.5
    endloop
  endfacet
  facet normal 0 0 1
    outer loop
      vertex -54.8127 24.4042 2.5
      vertex -55.7544 11.851 2.5
      vertex -52.0721 23.184 2.5
    endloop
  endfacet
  facet normal -0 0 1
    outer loop
      vertex -58.6889 12.4747 2.5
      vertex -55.7544 11.851 2.5
      vertex -54.8127 24.4042 2.5
    endloop
  endfacet
  facet normal 0 0 1
    outer loop
      vertex -55.7544 11.851 2.5
      vertex -58.6889 12.4747 2.5
      vertex -57 0 2.5
    endloop
  endfacet
  facet normal 0 0 1
    outer loop
      vertex 57 0 2.5
      vertex 60 0 2.5
      vertex 58.6889 12.4747 2.5
    endloop
  endfacet
  facet normal 0 0 1
    outer loop
      vertex 60 0 2.5
      vertex 57 0 2.5
      vertex 58.6889 -12.4747 2.5
    endloop
  endfacet
  facet normal 0 0 1
    outer loop
      vertex 58.6889 12.4747 2.5
      vertex 55.7544 11.851 2.5
      vertex 57 0 2.5
    endloop
  endfacet
  facet normal 0 0 1
    outer loop
      vertex 54.8127 24.4042 2.5
      vertex 55.7544 11.851 2.5
      vertex 58.6889 12.4747 2.5
    endloop
  endfacet
  facet normal 0 0 1
    outer loop
      vertex 54.8127 24.4042 2.5
      vertex 52.0721 23.184 2.5
      vertex 55.7544 11.851 2.5
    endloop
  endfacet
  facet normal -0 0 1
    outer loop
      vertex 50 26.773 2.5
      vertex 54.8127 24.4042 2.5
      vertex 50 32.7401 2.5
    endloop
  endfacet
  facet normal 0 0 1
    outer loop
      vertex 54.8127 24.4042 2.5
      vertex 50 26.773 2.5
      vertex 52.0721 23.184 2.5
    endloop
  endfacet
  facet normal -0 0 1
    outer loop
      vertex 55.7544 -11.851 2.5
      vertex 58.6889 -12.4747 2.5
      vertex 57 0 2.5
    endloop
  endfacet
  facet normal 0 0 1
    outer loop
      vertex 55.7544 -11.851 2.5
      vertex 54.8127 -24.4042 2.5
      vertex 58.6889 -12.4747 2.5
    endloop
  endfacet
  facet normal -0 0 1
    outer loop
      vertex 52.0721 -23.184 2.5
      vertex 54.8127 -24.4042 2.5
      vertex 55.7544 -11.851 2.5
    endloop
  endfacet
  facet normal 0 0 1
    outer loop
      vertex 52.0721 -23.184 2.5
      vertex 48.541 -35.2671 2.5
      vertex 54.8127 -24.4042 2.5
    endloop
  endfacet
  facet normal -0 0 1
    outer loop
      vertex 46.114 -33.5038 2.5
      vertex 48.541 -35.2671 2.5
      vertex 52.0721 -23.184 2.5
    endloop
  endfacet
  facet normal 0 0 1
    outer loop
      vertex 46.114 -33.5038 2.5
      vertex 40.1478 -44.5887 2.5
      vertex 48.541 -35.2671 2.5
    endloop
  endfacet
  facet normal -0 0 1
    outer loop
      vertex 38.1404 -42.3593 2.5
      vertex 40.1478 -44.5887 2.5
      vertex 46.114 -33.5038 2.5
    endloop
  endfacet
  facet normal 0 0 1
    outer loop
      vertex 38.1404 -42.3593 2.5
      vertex 30 -51.9615 2.5
      vertex 40.1478 -44.5887 2.5
    endloop
  endfacet
  facet normal -0 0 1
    outer loop
      vertex 28.5 -49.3634 2.5
      vertex 30 -51.9615 2.5
      vertex 38.1404 -42.3593 2.5
    endloop
  endfacet
  facet normal 0 0 1
    outer loop
      vertex 28.5 -49.3634 2.5
      vertex 18.541 -57.0634 2.5
      vertex 30 -51.9615 2.5
    endloop
  endfacet
  facet normal -0 0 1
    outer loop
      vertex 17.614 -54.2102 2.5
      vertex 18.541 -57.0634 2.5
      vertex 28.5 -49.3634 2.5
    endloop
  endfacet
  facet normal 0 0 1
    outer loop
      vertex 17.614 -54.2102 2.5
      vertex 6.27171 -59.6713 2.5
      vertex 18.541 -57.0634 2.5
    endloop
  endfacet
  facet normal -0 0 1
    outer loop
      vertex 5.95812 -56.6877 2.5
      vertex 6.27171 -59.6713 2.5
      vertex 17.614 -54.2102 2.5
    endloop
  endfacet
  facet normal -0 0 1
    outer loop
      vertex -5.95812 -56.6877 2.5
      vertex 6.27171 -59.6713 2.5
      vertex 5.95812 -56.6877 2.5
    endloop
  endfacet
  facet normal 0 0 1
    outer loop
      vertex -5.95812 -56.6877 2.5
      vertex -6.27171 -59.6713 2.5
      vertex 6.27171 -59.6713 2.5
    endloop
  endfacet
  facet normal 0 0 1
    outer loop
      vertex -17.614 -54.2102 2.5
      vertex -6.27171 -59.6713 2.5
      vertex -5.95812 -56.6877 2.5
    endloop
  endfacet
  facet normal 0 0 1
    outer loop
      vertex -17.614 -54.2102 2.5
      vertex -18.541 -57.0634 2.5
      vertex -6.27171 -59.6713 2.5
    endloop
  endfacet
  facet normal 0 0 1
    outer loop
      vertex -28.5 -49.3634 2.5
      vertex -18.541 -57.0634 2.5
      vertex -17.614 -54.2102 2.5
    endloop
  endfacet
  facet normal 0 0 1
    outer loop
      vertex -28.5 -49.3634 2.5
      vertex -30 -51.9615 2.5
      vertex -18.541 -57.0634 2.5
    endloop
  endfacet
  facet normal 0 0 1
    outer loop
      vertex -38.1404 -42.3593 2.5
      vertex -30 -51.9615 2.5
      vertex -28.5 -49.3634 2.5
    endloop
  endfacet
  facet normal 0 0 1
    outer loop
      vertex -38.1404 -42.3593 2.5
      vertex -40.1478 -44.5887 2.5
      vertex -30 -51.9615 2.5
    endloop
  endfacet
  facet normal 0 0 1
    outer loop
      vertex -46.114 -33.5038 2.5
      vertex -40.1478 -44.5887 2.5
      vertex -38.1404 -42.3593 2.5
    endloop
  endfacet
  facet normal 0 0 1
    outer loop
      vertex -46.114 -33.5038 2.5
      vertex -48.541 -35.2671 2.5
      vertex -40.1478 -44.5887 2.5
    endloop
  endfacet
  facet normal 0 0 1
    outer loop
      vertex -52.0721 -23.184 2.5
      vertex -48.541 -35.2671 2.5
      vertex -46.114 -33.5038 2.5
    endloop
  endfacet
  facet normal 0 0 1
    outer loop
      vertex -52.0721 -23.184 2.5
      vertex -54.8127 -24.4042 2.5
      vertex -48.541 -35.2671 2.5
    endloop
  endfacet
  facet normal 0 0 1
    outer loop
      vertex -55.7544 -11.851 2.5
      vertex -54.8127 -24.4042 2.5
      vertex -52.0721 -23.184 2.5
    endloop
  endfacet
  facet normal 0 0 1
    outer loop
      vertex -58.6889 -12.4747 2.5
      vertex -55.7544 -11.851 2.5
      vertex -57 0 2.5
    endloop
  endfacet
  facet normal 0 0 1
    outer loop
      vertex -60 0 2.5
      vertex -57 0 2.5
      vertex -58.6889 12.4747 2.5
    endloop
  endfacet
  facet normal 0 0 1
    outer loop
      vertex -55.7544 -11.851 2.5
      vertex -58.6889 -12.4747 2.5
      vertex -54.8127 -24.4042 2.5
    endloop
  endfacet
  facet normal 0 0 1
    outer loop
      vertex -57 0 2.5
      vertex -60 0 2.5
      vertex -58.6889 -12.4747 2.5
    endloop
  endfacet
  facet normal 0.994522 -0.104529 0
    outer loop
      vertex 58.6889 -12.4747 2.5
      vertex 60 0 -2.5
      vertex 60 0 2.5
    endloop
  endfacet
  facet normal 0.994522 -0.104529 0
    outer loop
      vertex 60 0 -2.5
      vertex 58.6889 -12.4747 2.5
      vertex 58.6889 -12.4747 -2.5
    endloop
  endfacet
  facet normal 0 0 -1
    outer loop
      vertex 57 0 -2.5
      vertex 60 0 -2.5
      vertex 58.6889 -12.4747 -2.5
    endloop
  endfacet
  facet normal 0 0 -1
    outer loop
      vertex 60 0 -2.5
      vertex 57 0 -2.5
      vertex 58.6889 12.4747 -2.5
    endloop
  endfacet
  facet normal 0 0 -1
    outer loop
      vertex 58.6889 -12.4747 -2.5
      vertex 55.7544 -11.851 -2.5
      vertex 57 0 -2.5
    endloop
  endfacet
  facet normal 0 0 -1
    outer loop
      vertex 54.8127 -24.4042 -2.5
      vertex 55.7544 -11.851 -2.5
      vertex 58.6889 -12.4747 -2.5
    endloop
  endfacet
  facet normal 0 0 -1
    outer loop
      vertex 54.8127 -24.4042 -2.5
      vertex 52.0721 -23.184 -2.5
      vertex 55.7544 -11.851 -2.5
    endloop
  endfacet
  facet normal 0 0 -1
    outer loop
      vertex 48.541 -35.2671 -2.5
      vertex 52.0721 -23.184 -2.5
      vertex 54.8127 -24.4042 -2.5
    endloop
  endfacet
  facet normal 0 0 -1
    outer loop
      vertex 48.541 -35.2671 -2.5
      vertex 46.114 -33.5038 -2.5
      vertex 52.0721 -23.184 -2.5
    endloop
  endfacet
  facet normal 0 0 -1
    outer loop
      vertex 40.1478 -44.5887 -2.5
      vertex 46.114 -33.5038 -2.5
      vertex 48.541 -35.2671 -2.5
    endloop
  endfacet
  facet normal 0 0 -1
    outer loop
      vertex 40.1478 -44.5887 -2.5
      vertex 38.1404 -42.3593 -2.5
      vertex 46.114 -33.5038 -2.5
    endloop
  endfacet
  facet normal 0 0 -1
    outer loop
      vertex 30 -51.9615 -2.5
      vertex 38.1404 -42.3593 -2.5
      vertex 40.1478 -44.5887 -2.5
    endloop
  endfacet
  facet normal 0 0 -1
    outer loop
      vertex 30 -51.9615 -2.5
      vertex 28.5 -49.3634 -2.5
      vertex 38.1404 -42.3593 -2.5
    endloop
  endfacet
  facet normal 0 0 -1
    outer loop
      vertex 18.541 -57.0634 -2.5
      vertex 28.5 -49.3634 -2.5
      vertex 30 -51.9615 -2.5
    endloop
  endfacet
  facet normal 0 0 -1
    outer loop
      vertex 18.541 -57.0634 -2.5
      vertex 17.614 -54.2102 -2.5
      vertex 28.5 -49.3634 -2.5
    endloop
  endfacet
  facet normal 0 0 -1
    outer loop
      vertex 6.27171 -59.6713 -2.5
      vertex 17.614 -54.2102 -2.5
      vertex 18.541 -57.0634 -2.5
    endloop
  endfacet
  facet normal 0 0 -1
    outer loop
      vertex 6.27171 -59.6713 -2.5
      vertex 5.95812 -56.6877 -2.5
      vertex 17.614 -54.2102 -2.5
    endloop
  endfacet
  facet normal 0 0 -1
    outer loop
      vertex 6.27171 -59.6713 -2.5
      vertex -5.95812 -56.6877 -2.5
      vertex 5.95812 -56.6877 -2.5
    endloop
  endfacet
  facet normal 0 0 -1
    outer loop
      vertex -6.27171 -59.6713 -2.5
      vertex -5.95812 -56.6877 -2.5
      vertex 6.27171 -59.6713 -2.5
    endloop
  endfacet
  facet normal 0 0 -1
    outer loop
      vertex -6.27171 -59.6713 -2.5
      vertex -17.614 -54.2102 -2.5
      vertex -5.95812 -56.6877 -2.5
    endloop
  endfacet
  facet normal 0 0 -1
    outer loop
      vertex -18.541 -57.0634 -2.5
      vertex -17.614 -54.2102 -2.5
      vertex -6.27171 -59.6713 -2.5
    endloop
  endfacet
  facet normal 0 0 -1
    outer loop
      vertex -18.541 -57.0634 -2.5
      vertex -28.5 -49.3634 -2.5
      vertex -17.614 -54.2102 -2.5
    endloop
  endfacet
  facet normal 0 0 -1
    outer loop
      vertex -30 -51.9615 -2.5
      vertex -28.5 -49.3634 -2.5
      vertex -18.541 -57.0634 -2.5
    endloop
  endfacet
  facet normal 0 0 -1
    outer loop
      vertex -30 -51.9615 -2.5
      vertex -38.1404 -42.3593 -2.5
      vertex -28.5 -49.3634 -2.5
    endloop
  endfacet
  facet normal 0 0 -1
    outer loop
      vertex -40.1478 -44.5887 -2.5
      vertex -38.1404 -42.3593 -2.5
      vertex -30 -51.9615 -2.5
    endloop
  endfacet
  facet normal 0 0 -1
    outer loop
      vertex -40.1478 -44.5887 -2.5
      vertex -46.114 -33.5038 -2.5
      vertex -38.1404 -42.3593 -2.5
    endloop
  endfacet
  facet normal 0 0 -1
    outer loop
      vertex -48.541 -35.2671 -2.5
      vertex -46.114 -33.5038 -2.5
      vertex -40.1478 -44.5887 -2.5
    endloop
  endfacet
  facet normal 0 0 -1
    outer loop
      vertex -48.541 -35.2671 -2.5
      vertex -52.0721 -23.184 -2.5
      vertex -46.114 -33.5038 -2.5
    endloop
  endfacet
  facet normal 0 0 -1
    outer loop
      vertex -54.8127 -24.4042 -2.5
      vertex -52.0721 -23.184 -2.5
      vertex -48.541 -35.2671 -2.5
    endloop
  endfacet
  facet normal 0 0 -1
    outer loop
      vertex -54.8127 -24.4042 -2.5
      vertex -55.7544 -11.851 -2.5
      vertex -52.0721 -23.184 -2.5
    endloop
  endfacet
  facet normal 0 0 -1
    outer loop
      vertex -58.6889 -12.4747 -2.5
      vertex -55.7544 -11.851 -2.5
      vertex -54.8127 -24.4042 -2.5
    endloop
  endfacet
  facet normal -0 0 -1
    outer loop
      vertex -55.7544 -11.851 -2.5
      vertex -58.6889 -12.4747 -2.5
      vertex -57 0 -2.5
    endloop
  endfacet
  facet normal 0 0 -1
    outer loop
      vertex 55.7544 11.851 -2.5
      vertex 58.6889 12.4747 -2.5
      vertex 57 0 -2.5
    endloop
  endfacet
  facet normal 0 0 -1
    outer loop
      vertex 55.7544 11.851 -2.5
      vertex 54.8127 24.4042 -2.5
      vertex 58.6889 12.4747 -2.5
    endloop
  endfacet
  facet normal 0 0 -1
    outer loop
      vertex 52.0721 23.184 -2.5
      vertex 54.8127 24.4042 -2.5
      vertex 55.7544 11.851 -2.5
    endloop
  endfacet
  facet normal 0 0 -1
    outer loop
      vertex 50 26.773 -2.5
      vertex 54.8127 24.4042 -2.5
      vertex 52.0721 23.184 -2.5
    endloop
  endfacet
  facet normal 0 0 -1
    outer loop
      vertex 54.8127 24.4042 -2.5
      vertex 50 26.773 -2.5
      vertex 50 32.7401 -2.5
    endloop
  endfacet
  facet normal 0 0 -1
    outer loop
      vertex -54.8127 24.4042 -2.5
      vertex -50 26.773 -2.5
      vertex -52.0721 23.184 -2.5
    endloop
  endfacet
  facet normal -0 0 -1
    outer loop
      vertex -50 26.773 -2.5
      vertex -54.8127 24.4042 -2.5
      vertex -50 32.7401 -2.5
    endloop
  endfacet
  facet normal 0 0 -1
    outer loop
      vertex -55.7544 11.851 -2.5
      vertex -54.8127 24.4042 -2.5
      vertex -52.0721 23.184 -2.5
    endloop
  endfacet
  facet normal 0 0 -1
    outer loop
      vertex -58.6889 12.4747 -2.5
      vertex -55.7544 11.851 -2.5
      vertex -57 0 -2.5
    endloop
  endfacet
  facet normal 0 0 -1
    outer loop
      vertex -60 0 -2.5
      vertex -57 0 -2.5
      vertex -58.6889 -12.4747 -2.5
    endloop
  endfacet
  facet normal 0 0 -1
    outer loop
      vertex -55.7544 11.851 -2.5
      vertex -58.6889 12.4747 -2.5
      vertex -54.8127 24.4042 -2.5
    endloop
  endfacet
  facet normal 0 0 -1
    outer loop
      vertex -57 0 -2.5
      vertex -60 0 -2.5
      vertex -58.6889 12.4747 -2.5
    endloop
  endfacet
  facet normal 0.207912 -0.978148 0
    outer loop
      vertex 6.27171 -59.6713 -2.5
      vertex 18.541 -57.0634 2.5
      vertex 6.27171 -59.6713 2.5
    endloop
  endfacet
  facet normal 0.207912 -0.978148 0
    outer loop
      vertex 18.541 -57.0634 2.5
      vertex 6.27171 -59.6713 -2.5
      vertex 18.541 -57.0634 -2.5
    endloop
  endfacet
  facet normal 0.866025 -0.5 0
    outer loop
      vertex 48.541 -35.2671 2.5
      vertex 54.8127 -24.4042 -2.5
      vertex 54.8127 -24.4042 2.5
    endloop
  endfacet
  facet normal 0.866025 -0.5 0
    outer loop
      vertex 54.8127 -24.4042 -2.5
      vertex 48.541 -35.2671 2.5
      vertex 48.541 -35.2671 -2.5
    endloop
  endfacet
  facet normal -0.866025 -0.5 0
    outer loop
      vertex -48.541 -35.2671 -2.5
      vertex -54.8127 -24.4042 2.5
      vertex -54.8127 -24.4042 -2.5
    endloop
  endfacet
  facet normal -0.866025 -0.5 0
    outer loop
      vertex -54.8127 -24.4042 2.5
      vertex -48.541 -35.2671 -2.5
      vertex -48.541 -35.2671 2.5
    endloop
  endfacet
  facet normal 0.587785 -0.809017 0
    outer loop
      vertex 30 -51.9615 -2.5
      vertex 40.1478 -44.5887 2.5
      vertex 30 -51.9615 2.5
    endloop
  endfacet
  facet normal 0.587785 -0.809017 0
    outer loop
      vertex 40.1478 -44.5887 2.5
      vertex 30 -51.9615 -2.5
      vertex 40.1478 -44.5887 -2.5
    endloop
  endfacet
  facet normal 0.406737 -0.913545 0
    outer loop
      vertex 18.541 -57.0634 -2.5
      vertex 30 -51.9615 2.5
      vertex 18.541 -57.0634 2.5
    endloop
  endfacet
  facet normal 0.406737 -0.913545 0
    outer loop
      vertex 30 -51.9615 2.5
      vertex 18.541 -57.0634 -2.5
      vertex 30 -51.9615 -2.5
    endloop
  endfacet
  facet normal 0.951057 -0.309017 0
    outer loop
      vertex 54.8127 -24.4042 2.5
      vertex 58.6889 -12.4747 -2.5
      vertex 58.6889 -12.4747 2.5
    endloop
  endfacet
  facet normal 0.951057 -0.309017 0
    outer loop
      vertex 58.6889 -12.4747 -2.5
      vertex 54.8127 -24.4042 2.5
      vertex 54.8127 -24.4042 -2.5
    endloop
  endfacet
  facet normal -0.207912 -0.978148 0
    outer loop
      vertex -18.541 -57.0634 -2.5
      vertex -6.27171 -59.6713 2.5
      vertex -18.541 -57.0634 2.5
    endloop
  endfacet
  facet normal -0.207912 -0.978148 -0
    outer loop
      vertex -6.27171 -59.6713 2.5
      vertex -18.541 -57.0634 -2.5
      vertex -6.27171 -59.6713 -2.5
    endloop
  endfacet
  facet normal -0.743145 -0.669131 0
    outer loop
      vertex -40.1478 -44.5887 -2.5
      vertex -48.541 -35.2671 2.5
      vertex -48.541 -35.2671 -2.5
    endloop
  endfacet
  facet normal -0.743145 -0.669131 0
    outer loop
      vertex -48.541 -35.2671 2.5
      vertex -40.1478 -44.5887 -2.5
      vertex -40.1478 -44.5887 2.5
    endloop
  endfacet
  facet normal -0.951057 -0.309017 0
    outer loop
      vertex -54.8127 -24.4042 -2.5
      vertex -58.6889 -12.4747 2.5
      vertex -58.6889 -12.4747 -2.5
    endloop
  endfacet
  facet normal -0.951057 -0.309017 0
    outer loop
      vertex -58.6889 -12.4747 2.5
      vertex -54.8127 -24.4042 -2.5
      vertex -54.8127 -24.4042 2.5
    endloop
  endfacet
  facet normal -0.994522 -0.104529 0
    outer loop
      vertex -58.6889 -12.4747 -2.5
      vertex -60 0 2.5
      vertex -60 0 -2.5
    endloop
  endfacet
  facet normal -0.994522 -0.104529 0
    outer loop
      vertex -60 0 2.5
      vertex -58.6889 -12.4747 -2.5
      vertex -58.6889 -12.4747 2.5
    endloop
  endfacet
  facet normal 0.743145 -0.669131 0
    outer loop
      vertex 40.1478 -44.5887 2.5
      vertex 48.541 -35.2671 -2.5
      vertex 48.541 -35.2671 2.5
    endloop
  endfacet
  facet normal 0.743145 -0.669131 0
    outer loop
      vertex 48.541 -35.2671 -2.5
      vertex 40.1478 -44.5887 2.5
      vertex 40.1478 -44.5887 -2.5
    endloop
  endfacet
  facet normal -0.406737 -0.913545 0
    outer loop
      vertex -30 -51.9615 -2.5
      vertex -18.541 -57.0634 2.5
      vertex -30 -51.9615 2.5
    endloop
  endfacet
  facet normal -0.406737 -0.913545 -0
    outer loop
      vertex -18.541 -57.0634 2.5
      vertex -30 -51.9615 -2.5
      vertex -18.541 -57.0634 -2.5
    endloop
  endfacet
  facet normal -0.587785 -0.809017 0
    outer loop
      vertex -40.1478 -44.5887 -2.5
      vertex -30 -51.9615 2.5
      vertex -40.1478 -44.5887 2.5
    endloop
  endfacet
  facet normal -0.587785 -0.809017 -0
    outer loop
      vertex -30 -51.9615 2.5
      vertex -40.1478 -44.5887 -2.5
      vertex -30 -51.9615 -2.5
    endloop
  endfacet
  facet normal -0.994522 -0.104528 0
    outer loop
      vertex 57 0 -2.5
      vertex 55.7544 11.851 2.5
      vertex 55.7544 11.851 -2.5
    endloop
  endfacet
  facet normal -0.994522 -0.104528 0
    outer loop
      vertex 55.7544 11.851 2.5
      vertex 57 0 -2.5
      vertex 57 0 2.5
    endloop
  endfacet
  facet normal 0.994522 -0.104528 0
    outer loop
      vertex -57 0 2.5
      vertex -55.7544 11.851 -2.5
      vertex -55.7544 11.851 2.5
    endloop
  endfacet
  facet normal 0.994522 -0.104528 0
    outer loop
      vertex -55.7544 11.851 -2.5
      vertex -57 0 2.5
      vertex -57 0 -2.5
    endloop
  endfacet
  facet normal -0.951056 -0.309017 0
    outer loop
      vertex 55.7544 11.851 -2.5
      vertex 52.0721 23.184 2.5
      vertex 52.0721 23.184 -2.5
    endloop
  endfacet
  facet normal -0.951056 -0.309017 0
    outer loop
      vertex 52.0721 23.184 2.5
      vertex 55.7544 11.851 -2.5
      vertex 55.7544 11.851 2.5
    endloop
  endfacet
  facet normal -0.866025 -0.5 0
    outer loop
      vertex 52.0721 23.184 -2.5
      vertex 50 26.773 2.5
      vertex 50 26.773 -2.5
    endloop
  endfacet
  facet normal -0.866025 -0.5 0
    outer loop
      vertex 50 26.773 2.5
      vertex 52.0721 23.184 -2.5
      vertex 52.0721 23.184 2.5
    endloop
  endfacet
  facet normal 0.866025 -0.5 0
    outer loop
      vertex -52.0721 23.184 2.5
      vertex -50 26.773 -2.5
      vertex -50 26.773 2.5
    endloop
  endfacet
  facet normal 0.866025 -0.5 0
    outer loop
      vertex -50 26.773 -2.5
      vertex -52.0721 23.184 2.5
      vertex -52.0721 23.184 -2.5
    endloop
  endfacet
  facet normal 0.951056 -0.309017 0
    outer loop
      vertex -55.7544 11.851 2.5
      vertex -52.0721 23.184 -2.5
      vertex -52.0721 23.184 2.5
    endloop
  endfacet
  facet normal 0.951056 -0.309017 0
    outer loop
      vertex -52.0721 23.184 -2.5
      vertex -55.7544 11.851 2.5
      vertex -55.7544 11.851 -2.5
    endloop
  endfacet
  facet normal -0.994522 0.104528 0
    outer loop
      vertex 55.7544 -11.851 -2.5
      vertex 57 0 2.5
      vertex 57 0 -2.5
    endloop
  endfacet
  facet normal -0.994522 0.104528 0
    outer loop
      vertex 57 0 2.5
      vertex 55.7544 -11.851 -2.5
      vertex 55.7544 -11.851 2.5
    endloop
  endfacet
  facet normal 0.207912 0.978148 -0
    outer loop
      vertex -5.95812 -56.6877 -2.5
      vertex -17.614 -54.2102 2.5
      vertex -5.95812 -56.6877 2.5
    endloop
  endfacet
  facet normal 0.207912 0.978148 0
    outer loop
      vertex -17.614 -54.2102 2.5
      vertex -5.95812 -56.6877 -2.5
      vertex -17.614 -54.2102 -2.5
    endloop
  endfacet
  facet normal -0.207912 0.978148 0
    outer loop
      vertex 17.614 -54.2102 -2.5
      vertex 5.95812 -56.6877 2.5
      vertex 17.614 -54.2102 2.5
    endloop
  endfacet
  facet normal -0.207912 0.978148 0
    outer loop
      vertex 5.95812 -56.6877 2.5
      vertex 17.614 -54.2102 -2.5
      vertex 5.95812 -56.6877 -2.5
    endloop
  endfacet
  facet normal -0.743145 0.669131 0
    outer loop
      vertex 38.1404 -42.3593 -2.5
      vertex 46.114 -33.5038 2.5
      vertex 46.114 -33.5038 -2.5
    endloop
  endfacet
  facet normal -0.743145 0.669131 0
    outer loop
      vertex 46.114 -33.5038 2.5
      vertex 38.1404 -42.3593 -2.5
      vertex 38.1404 -42.3593 2.5
    endloop
  endfacet
  facet normal -0.951056 0.309017 0
    outer loop
      vertex 52.0721 -23.184 -2.5
      vertex 55.7544 -11.851 2.5
      vertex 55.7544 -11.851 -2.5
    endloop
  endfacet
  facet normal -0.951056 0.309017 0
    outer loop
      vertex 55.7544 -11.851 2.5
      vertex 52.0721 -23.184 -2.5
      vertex 52.0721 -23.184 2.5
    endloop
  endfacet
  facet normal -0.866025 0.5 0
    outer loop
      vertex 46.114 -33.5038 -2.5
      vertex 52.0721 -23.184 2.5
      vertex 52.0721 -23.184 -2.5
    endloop
  endfacet
  facet normal -0.866025 0.5 0
    outer loop
      vertex 52.0721 -23.184 2.5
      vertex 46.114 -33.5038 -2.5
      vertex 46.114 -33.5038 2.5
    endloop
  endfacet
  facet normal 0.866025 0.5 0
    outer loop
      vertex -46.114 -33.5038 2.5
      vertex -52.0721 -23.184 -2.5
      vertex -52.0721 -23.184 2.5
    endloop
  endfacet
  facet normal 0.866025 0.5 0
    outer loop
      vertex -52.0721 -23.184 -2.5
      vertex -46.114 -33.5038 2.5
      vertex -46.114 -33.5038 -2.5
    endloop
  endfacet
  facet normal 0.994522 0.104528 0
    outer loop
      vertex -55.7544 -11.851 2.5
      vertex -57 0 -2.5
      vertex -57 0 2.5
    endloop
  endfacet
  facet normal 0.994522 0.104528 0
    outer loop
      vertex -57 0 -2.5
      vertex -55.7544 -11.851 2.5
      vertex -55.7544 -11.851 -2.5
    endloop
  endfacet
  facet normal 0.951056 0.309017 0
    outer loop
      vertex -52.0721 -23.184 2.5
      vertex -55.7544 -11.851 -2.5
      vertex -55.7544 -11.851 2.5
    endloop
  endfacet
  facet normal 0.951056 0.309017 0
    outer loop
      vertex -55.7544 -11.851 -2.5
      vertex -52.0721 -23.184 2.5
      vertex -52.0721 -23.184 -2.5
    endloop
  endfacet
  facet normal -0.587786 0.809017 0
    outer loop
      vertex 38.1404 -42.3593 -2.5
      vertex 28.5 -49.3634 2.5
      vertex 38.1404 -42.3593 2.5
    endloop
  endfacet
  facet normal -0.587786 0.809017 0
    outer loop
      vertex 28.5 -49.3634 2.5
      vertex 38.1404 -42.3593 -2.5
      vertex 28.5 -49.3634 -2.5
    endloop
  endfacet
  facet normal -0.406736 0.913546 0
    outer loop
      vertex 28.5 -49.3634 -2.5
      vertex 17.614 -54.2102 2.5
      vertex 28.5 -49.3634 2.5
    endloop
  endfacet
  facet normal -0.406736 0.913546 0
    outer loop
      vertex 17.614 -54.2102 2.5
      vertex 28.5 -49.3634 -2.5
      vertex 17.614 -54.2102 -2.5
    endloop
  endfacet
  facet normal 0 1 -0
    outer loop
      vertex 5.95812 -56.6877 -2.5
      vertex -5.95812 -56.6877 2.5
      vertex 5.95812 -56.6877 2.5
    endloop
  endfacet
  facet normal 0 1 0
    outer loop
      vertex -5.95812 -56.6877 2.5
      vertex 5.95812 -56.6877 -2.5
      vertex -5.95812 -56.6877 -2.5
    endloop
  endfacet
  facet normal 0.587786 0.809017 -0
    outer loop
      vertex -28.5 -49.3634 -2.5
      vertex -38.1404 -42.3593 2.5
      vertex -28.5 -49.3634 2.5
    endloop
  endfacet
  facet normal 0.587786 0.809017 0
    outer loop
      vertex -38.1404 -42.3593 2.5
      vertex -28.5 -49.3634 -2.5
      vertex -38.1404 -42.3593 -2.5
    endloop
  endfacet
  facet normal 0.743145 0.669131 0
    outer loop
      vertex -38.1404 -42.3593 2.5
      vertex -46.114 -33.5038 -2.5
      vertex -46.114 -33.5038 2.5
    endloop
  endfacet
  facet normal 0.743145 0.669131 0
    outer loop
      vertex -46.114 -33.5038 -2.5
      vertex -38.1404 -42.3593 2.5
      vertex -38.1404 -42.3593 -2.5
    endloop
  endfacet
  facet normal 0.406736 0.913546 -0
    outer loop
      vertex -17.614 -54.2102 -2.5
      vertex -28.5 -49.3634 2.5
      vertex -17.614 -54.2102 2.5
    endloop
  endfacet
  facet normal 0.406736 0.913546 0
    outer loop
      vertex -28.5 -49.3634 2.5
      vertex -17.614 -54.2102 -2.5
      vertex -28.5 -49.3634 -2.5
    endloop
  endfacet
  facet normal 1 -0 0
    outer loop
      vertex -50 26.773 2.5
      vertex -50 32.7401 -2.5
      vertex -50 32.7401 2.5
    endloop
  endfacet
  facet normal 1 0 0
    outer loop
      vertex -50 32.7401 -2.5
      vertex -50 26.773 2.5
      vertex -50 26.773 -2.5
    endloop
  endfacet
  facet normal -1 0 0
    outer loop
      vertex 50 26.773 -2.5
      vertex 50 32.7401 2.5
      vertex 50 32.7401 -2.5
    endloop
  endfacet
  facet normal -1 -0 0
    outer loop
      vertex 50 32.7401 2.5
      vertex 50 26.773 -2.5
      vertex 50 26.773 2.5
    endloop
  endfacet
endsolid OpenSCAD_Model
