solid OpenSCAD_Model
  facet normal -0.951056 -0.309017 0
    outer loop
      vertex 3 0 -5
      vertex 2.42705 1.76336 0
      vertex 2.42705 1.76336 -5
    endloop
  endfacet
  facet normal -0.951056 -0.309017 0
    outer loop
      vertex 2.42705 1.76336 0
      vertex 3 0 -5
      vertex 3 0 0
    endloop
  endfacet
  facet normal 0.951056 -0.309017 0
    outer loop
      vertex -3 0 0
      vertex -2.42705 1.76336 -5
      vertex -2.42705 1.76336 0
    endloop
  endfacet
  facet normal 0.951056 -0.309017 0
    outer loop
      vertex -2.42705 1.76336 -5
      vertex -3 0 0
      vertex -3 0 -5
    endloop
  endfacet
  facet normal -0.587785 -0.809017 0
    outer loop
      vertex 2.10134 2 -5
      vertex 2.42705 1.76336 0
      vertex 2.10134 2 0
    endloop
  endfacet
  facet normal -0.587785 -0.809017 -0
    outer loop
      vertex 2.42705 1.76336 0
      vertex 2.10134 2 -5
      vertex 2.42705 1.76336 -5
    endloop
  endfacet
  facet normal 0.587785 -0.809017 0
    outer loop
      vertex -2.42705 1.76336 -5
      vertex -2.10134 2 0
      vertex -2.42705 1.76336 0
    endloop
  endfacet
  facet normal 0.587785 -0.809017 0
    outer loop
      vertex -2.10134 2 0
      vertex -2.42705 1.76336 -5
      vertex -2.10134 2 -5
    endloop
  endfacet
  facet normal -0.951056 0.309017 0
    outer loop
      vertex 2.42705 -1.76336 -5
      vertex 3 0 0
      vertex 3 0 -5
    endloop
  endfacet
  facet normal -0.951056 0.309017 0
    outer loop
      vertex 3 0 0
      vertex 2.42705 -1.76336 -5
      vertex 2.42705 -1.76336 0
    endloop
  endfacet
  facet normal 0.951056 0.309017 0
    outer loop
      vertex -2.42705 -1.76336 0
      vertex -3 0 -5
      vertex -3 0 0
    endloop
  endfacet
  facet normal 0.951056 0.309017 0
    outer loop
      vertex -3 0 -5
      vertex -2.42705 -1.76336 0
      vertex -2.42705 -1.76336 -5
    endloop
  endfacet
  facet normal -0.587785 0.809017 0
    outer loop
      vertex 2.42705 -1.76336 -5
      vertex 2.10134 -2 0
      vertex 2.42705 -1.76336 0
    endloop
  endfacet
  facet normal -0.587785 0.809017 0
    outer loop
      vertex 2.10134 -2 0
      vertex 2.42705 -1.76336 -5
      vertex 2.10134 -2 -5
    endloop
  endfacet
  facet normal 0.587785 0.809017 -0
    outer loop
      vertex -2.10134 -2 -5
      vertex -2.42705 -1.76336 0
      vertex -2.10134 -2 0
    endloop
  endfacet
  facet normal 0.587785 0.809017 0
    outer loop
      vertex -2.42705 -1.76336 0
      vertex -2.10134 -2 -5
      vertex -2.42705 -1.76336 -5
    endloop
  endfacet
  facet normal 0 -1 0
    outer loop
      vertex -2.10134 2 -5
      vertex 2.10134 2 0
      vertex -2.10134 2 0
    endloop
  endfacet
  facet normal 0 -1 -0
    outer loop
      vertex 2.10134 2 0
      vertex -2.10134 2 -5
      vertex 2.10134 2 -5
    endloop
  endfacet
  facet normal 0 1 -0
    outer loop
      vertex 2.10134 -2 -5
      vertex -2.10134 -2 0
      vertex 2.10134 -2 0
    endloop
  endfacet
  facet normal 0 1 0
    outer loop
      vertex -2.10134 -2 0
      vertex 2.10134 -2 -5
      vertex -2.10134 -2 -5
    endloop
  endfacet
  facet normal 0.980785 0.195091 0
    outer loop
      vertex 5 0 5
      vertex 4.6194 1.91342 -5
      vertex 4.6194 1.91342 5
    endloop
  endfacet
  facet normal 0.980785 0.195091 0
    outer loop
      vertex 4.6194 1.91342 -5
      vertex 5 0 5
      vertex 5 0 -5
    endloop
  endfacet
  facet normal -0.980785 0.195091 0
    outer loop
      vertex -5 0 -5
      vertex -4.6194 1.91342 5
      vertex -4.6194 1.91342 -5
    endloop
  endfacet
  facet normal -0.980785 0.195091 0
    outer loop
      vertex -4.6194 1.91342 5
      vertex -5 0 -5
      vertex -5 0 5
    endloop
  endfacet
  facet normal 0.195091 0.980785 -0
    outer loop
      vertex 1.91342 4.6194 -5
      vertex 0 5 5
      vertex 1.91342 4.6194 5
    endloop
  endfacet
  facet normal 0.195091 0.980785 0
    outer loop
      vertex 0 5 5
      vertex 1.91342 4.6194 -5
      vertex 0 5 -5
    endloop
  endfacet
  facet normal 0.83147 0.55557 0
    outer loop
      vertex 4.6194 1.91342 5
      vertex 3.53553 3.53553 -5
      vertex 3.53553 3.53553 5
    endloop
  endfacet
  facet normal 0.83147 0.55557 0
    outer loop
      vertex 3.53553 3.53553 -5
      vertex 4.6194 1.91342 5
      vertex 4.6194 1.91342 -5
    endloop
  endfacet
  facet normal -0.195091 -0.980785 0
    outer loop
      vertex -1.91342 -4.6194 -5
      vertex 0 -5 5
      vertex -1.91342 -4.6194 5
    endloop
  endfacet
  facet normal -0.195091 -0.980785 -0
    outer loop
      vertex 0 -5 5
      vertex -1.91342 -4.6194 -5
      vertex 0 -5 -5
    endloop
  endfacet
  facet normal 0 0 -1
    outer loop
      vertex 3 0 -5
      vertex 5 0 -5
      vertex 4.6194 -1.91342 -5
    endloop
  endfacet
  facet normal 0 0 -1
    outer loop
      vertex 2.42705 -1.76336 -5
      vertex 4.6194 -1.91342 -5
      vertex 3.53553 -3.53553 -5
    endloop
  endfacet
  facet normal 0 0 -1
    outer loop
      vertex 5 0 -5
      vertex 3 0 -5
      vertex 4.6194 1.91342 -5
    endloop
  endfacet
  facet normal 0 0 -1
    outer loop
      vertex 2.42705 1.76336 -5
      vertex 4.6194 1.91342 -5
      vertex 3 0 -5
    endloop
  endfacet
  facet normal 0 0 -1
    outer loop
      vertex 4.6194 -1.91342 -5
      vertex 2.42705 -1.76336 -5
      vertex 3 0 -5
    endloop
  endfacet
  facet normal 0 0 -1
    outer loop
      vertex 3.53553 -3.53553 -5
      vertex 2.10134 -2 -5
      vertex 2.42705 -1.76336 -5
    endloop
  endfacet
  facet normal 0 0 -1
    outer loop
      vertex 1.91342 -4.6194 -5
      vertex 2.10134 -2 -5
      vertex 3.53553 -3.53553 -5
    endloop
  endfacet
  facet normal 0 0 -1
    outer loop
      vertex 0 -5 -5
      vertex 2.10134 -2 -5
      vertex 1.91342 -4.6194 -5
    endloop
  endfacet
  facet normal 0 0 -1
    outer loop
      vertex -2.10134 -2 -5
      vertex 0 -5 -5
      vertex -1.91342 -4.6194 -5
    endloop
  endfacet
  facet normal 0 0 -1
    outer loop
      vertex 0 -5 -5
      vertex -2.10134 -2 -5
      vertex 2.10134 -2 -5
    endloop
  endfacet
  facet normal 0 0 -1
    outer loop
      vertex -3.53553 -3.53553 -5
      vertex -2.10134 -2 -5
      vertex -1.91342 -4.6194 -5
    endloop
  endfacet
  facet normal -0 0 -1
    outer loop
      vertex -2.10134 -2 -5
      vertex -3.53553 -3.53553 -5
      vertex -2.42705 -1.76336 -5
    endloop
  endfacet
  facet normal 0 0 -1
    outer loop
      vertex -4.6194 -1.91342 -5
      vertex -2.42705 -1.76336 -5
      vertex -3.53553 -3.53553 -5
    endloop
  endfacet
  facet normal -0 0 -1
    outer loop
      vertex 4.6194 1.91342 -5
      vertex 2.42705 1.76336 -5
      vertex 3.53553 3.53553 -5
    endloop
  endfacet
  facet normal 0 0 -1
    outer loop
      vertex 2.10134 2 -5
      vertex 3.53553 3.53553 -5
      vertex 2.42705 1.76336 -5
    endloop
  endfacet
  facet normal 0 0 -1
    outer loop
      vertex 2.10134 2 -5
      vertex 1.91342 4.6194 -5
      vertex 3.53553 3.53553 -5
    endloop
  endfacet
  facet normal 0 0 -1
    outer loop
      vertex 2.10134 2 -5
      vertex 0 5 -5
      vertex 1.91342 4.6194 -5
    endloop
  endfacet
  facet normal 0 0 -1
    outer loop
      vertex -2.10134 2 -5
      vertex 0 5 -5
      vertex 2.10134 2 -5
    endloop
  endfacet
  facet normal 0 0 -1
    outer loop
      vertex 0 5 -5
      vertex -2.10134 2 -5
      vertex -1.91342 4.6194 -5
    endloop
  endfacet
  facet normal 0 0 -1
    outer loop
      vertex -3.53553 3.53553 -5
      vertex -2.10134 2 -5
      vertex -2.42705 1.76336 -5
    endloop
  endfacet
  facet normal 0 0 -1
    outer loop
      vertex -4.6194 1.91342 -5
      vertex -2.42705 1.76336 -5
      vertex -3 0 -5
    endloop
  endfacet
  facet normal 0 0 -1
    outer loop
      vertex -2.10134 2 -5
      vertex -3.53553 3.53553 -5
      vertex -1.91342 4.6194 -5
    endloop
  endfacet
  facet normal -0 0 -1
    outer loop
      vertex -2.42705 -1.76336 -5
      vertex -4.6194 -1.91342 -5
      vertex -3 0 -5
    endloop
  endfacet
  facet normal 0 0 -1
    outer loop
      vertex -5 0 -5
      vertex -3 0 -5
      vertex -4.6194 -1.91342 -5
    endloop
  endfacet
  facet normal 0 0 -1
    outer loop
      vertex -2.42705 1.76336 -5
      vertex -4.6194 1.91342 -5
      vertex -3.53553 3.53553 -5
    endloop
  endfacet
  facet normal 0 0 -1
    outer loop
      vertex -3 0 -5
      vertex -5 0 -5
      vertex -4.6194 1.91342 -5
    endloop
  endfacet
  facet normal 0.55557 0.83147 -0
    outer loop
      vertex 3.53553 3.53553 -5
      vertex 1.91342 4.6194 5
      vertex 3.53553 3.53553 5
    endloop
  endfacet
  facet normal 0.55557 0.83147 0
    outer loop
      vertex 1.91342 4.6194 5
      vertex 3.53553 3.53553 -5
      vertex 1.91342 4.6194 -5
    endloop
  endfacet
  facet normal -0.55557 0.83147 0
    outer loop
      vertex -1.91342 4.6194 -5
      vertex -3.53553 3.53553 5
      vertex -1.91342 4.6194 5
    endloop
  endfacet
  facet normal -0.55557 0.83147 0
    outer loop
      vertex -3.53553 3.53553 5
      vertex -1.91342 4.6194 -5
      vertex -3.53553 3.53553 -5
    endloop
  endfacet
  facet normal -0.83147 0.55557 0
    outer loop
      vertex -4.6194 1.91342 -5
      vertex -3.53553 3.53553 5
      vertex -3.53553 3.53553 -5
    endloop
  endfacet
  facet normal -0.83147 0.55557 0
    outer loop
      vertex -3.53553 3.53553 5
      vertex -4.6194 1.91342 -5
      vertex -4.6194 1.91342 5
    endloop
  endfacet
  facet normal 0 0 1
    outer loop
      vertex 3.5 0 5
      vertex 5 0 5
      vertex 4.6194 1.91342 5
    endloop
  endfacet
  facet normal 0 0 1
    outer loop
      vertex 2.94439 1.89224 5
      vertex 4.6194 1.91342 5
      vertex 3.53553 3.53553 5
    endloop
  endfacet
  facet normal 0 0 1
    outer loop
      vertex 5 0 5
      vertex 3.5 0 5
      vertex 4.6194 -1.91342 5
    endloop
  endfacet
  facet normal -0 0 1
    outer loop
      vertex 2.94439 -1.89224 5
      vertex 4.6194 -1.91342 5
      vertex 3.5 0 5
    endloop
  endfacet
  facet normal 0 0 1
    outer loop
      vertex 4.6194 1.91342 5
      vertex 2.94439 1.89224 5
      vertex 3.5 0 5
    endloop
  endfacet
  facet normal 0 0 1
    outer loop
      vertex 1.45395 3.18371 5
      vertex 3.53553 3.53553 5
      vertex 1.91342 4.6194 5
    endloop
  endfacet
  facet normal 0 0 1
    outer loop
      vertex 3.53553 3.53553 5
      vertex 1.45395 3.18371 5
      vertex 2.94439 1.89224 5
    endloop
  endfacet
  facet normal 0 0 1
    outer loop
      vertex 0 5 5
      vertex 1.45395 3.18371 5
      vertex 1.91342 4.6194 5
    endloop
  endfacet
  facet normal 0 0 1
    outer loop
      vertex 0 5 5
      vertex -0.498101 3.46437 5
      vertex 1.45395 3.18371 5
    endloop
  endfacet
  facet normal -0 0 1
    outer loop
      vertex -1.91342 4.6194 5
      vertex -0.498101 3.46437 5
      vertex 0 5 5
    endloop
  endfacet
  facet normal 0 0 1
    outer loop
      vertex -1.91342 4.6194 5
      vertex -2.29201 2.64512 5
      vertex -0.498101 3.46437 5
    endloop
  endfacet
  facet normal -0 0 1
    outer loop
      vertex -3.53553 3.53553 5
      vertex -2.29201 2.64512 5
      vertex -1.91342 4.6194 5
    endloop
  endfacet
  facet normal 0 0 1
    outer loop
      vertex -2.29201 2.64512 5
      vertex -4.6194 1.91342 5
      vertex -3.35822 0.986063 5
    endloop
  endfacet
  facet normal 0 0 1
    outer loop
      vertex -4.6194 1.91342 5
      vertex -2.29201 2.64512 5
      vertex -3.53553 3.53553 5
    endloop
  endfacet
  facet normal 0 0 1
    outer loop
      vertex 4.6194 -1.91342 5
      vertex 2.94439 -1.89224 5
      vertex 3.53553 -3.53553 5
    endloop
  endfacet
  facet normal -0 0 1
    outer loop
      vertex 1.45395 -3.18371 5
      vertex 3.53553 -3.53553 5
      vertex 2.94439 -1.89224 5
    endloop
  endfacet
  facet normal 0 0 1
    outer loop
      vertex 3.53553 -3.53553 5
      vertex 1.45395 -3.18371 5
      vertex 1.91342 -4.6194 5
    endloop
  endfacet
  facet normal 0 0 1
    outer loop
      vertex 1.45395 -3.18371 5
      vertex 0 -5 5
      vertex 1.91342 -4.6194 5
    endloop
  endfacet
  facet normal -0 0 1
    outer loop
      vertex -0.498101 -3.46437 5
      vertex 0 -5 5
      vertex 1.45395 -3.18371 5
    endloop
  endfacet
  facet normal 0 0 1
    outer loop
      vertex -0.498101 -3.46437 5
      vertex -1.91342 -4.6194 5
      vertex 0 -5 5
    endloop
  endfacet
  facet normal 0 0 1
    outer loop
      vertex -2.29201 -2.64512 5
      vertex -1.91342 -4.6194 5
      vertex -0.498101 -3.46437 5
    endloop
  endfacet
  facet normal -0 0 1
    outer loop
      vertex -4.6194 -1.91342 5
      vertex -2.29201 -2.64512 5
      vertex -3.35822 -0.986063 5
    endloop
  endfacet
  facet normal 0 0 1
    outer loop
      vertex -2.29201 -2.64512 5
      vertex -3.53553 -3.53553 5
      vertex -1.91342 -4.6194 5
    endloop
  endfacet
  facet normal 0 0 1
    outer loop
      vertex -5 0 5
      vertex -3.35822 0.986063 5
      vertex -4.6194 1.91342 5
    endloop
  endfacet
  facet normal 0 0 1
    outer loop
      vertex -3.35822 0.986063 5
      vertex -5 0 5
      vertex -3.35822 -0.986063 5
    endloop
  endfacet
  facet normal 0 0 1
    outer loop
      vertex -2.29201 -2.64512 5
      vertex -4.6194 -1.91342 5
      vertex -3.53553 -3.53553 5
    endloop
  endfacet
  facet normal 0 0 1
    outer loop
      vertex -3.35822 -0.986063 5
      vertex -5 0 5
      vertex -4.6194 -1.91342 5
    endloop
  endfacet
  facet normal -0.195091 0.980785 0
    outer loop
      vertex 0 5 -5
      vertex -1.91342 4.6194 5
      vertex 0 5 5
    endloop
  endfacet
  facet normal -0.195091 0.980785 0
    outer loop
      vertex -1.91342 4.6194 5
      vertex 0 5 -5
      vertex -1.91342 4.6194 -5
    endloop
  endfacet
  facet normal -0.55557 -0.83147 0
    outer loop
      vertex -3.53553 -3.53553 -5
      vertex -1.91342 -4.6194 5
      vertex -3.53553 -3.53553 5
    endloop
  endfacet
  facet normal -0.55557 -0.83147 -0
    outer loop
      vertex -1.91342 -4.6194 5
      vertex -3.53553 -3.53553 -5
      vertex -1.91342 -4.6194 -5
    endloop
  endfacet
  facet normal -0.980785 -0.195091 0
    outer loop
      vertex -4.6194 -1.91342 -5
      vertex -5 0 5
      vertex -5 0 -5
    endloop
  endfacet
  facet normal -0.980785 -0.195091 0
    outer loop
      vertex -5 0 5
      vertex -4.6194 -1.91342 -5
      vertex -4.6194 -1.91342 5
    endloop
  endfacet
  facet normal 0.980785 -0.195091 0
    outer loop
      vertex 4.6194 -1.91342 5
      vertex 5 0 -5
      vertex 5 0 5
    endloop
  endfacet
  facet normal 0.980785 -0.195091 0
    outer loop
      vertex 5 0 -5
      vertex 4.6194 -1.91342 5
      vertex 4.6194 -1.91342 -5
    endloop
  endfacet
  facet normal 0.55557 -0.83147 0
    outer loop
      vertex 1.91342 -4.6194 -5
      vertex 3.53553 -3.53553 5
      vertex 1.91342 -4.6194 5
    endloop
  endfacet
  facet normal 0.55557 -0.83147 0
    outer loop
      vertex 3.53553 -3.53553 5
      vertex 1.91342 -4.6194 -5
      vertex 3.53553 -3.53553 -5
    endloop
  endfacet
  facet normal 0.195091 -0.980785 0
    outer loop
      vertex 0 -5 -5
      vertex 1.91342 -4.6194 5
      vertex 0 -5 5
    endloop
  endfacet
  facet normal 0.195091 -0.980785 0
    outer loop
      vertex 1.91342 -4.6194 5
      vertex 0 -5 -5
      vertex 1.91342 -4.6194 -5
    endloop
  endfacet
  facet normal 0.83147 -0.55557 0
    outer loop
      vertex 3.53553 -3.53553 5
      vertex 4.6194 -1.91342 -5
      vertex 4.6194 -1.91342 5
    endloop
  endfacet
  facet normal 0.83147 -0.55557 0
    outer loop
      vertex 4.6194 -1.91342 -5
      vertex 3.53553 -3.53553 5
      vertex 3.53553 -3.53553 -5
    endloop
  endfacet
  facet normal -0.83147 -0.55557 0
    outer loop
      vertex -3.53553 -3.53553 -5
      vertex -4.6194 -1.91342 5
      vertex -4.6194 -1.91342 -5
    endloop
  endfacet
  facet normal -0.83147 -0.55557 0
    outer loop
      vertex -4.6194 -1.91342 5
      vertex -3.53553 -3.53553 -5
      vertex -3.53553 -3.53553 5
    endloop
  endfacet
  facet normal -0.959493 -0.281733 0
    outer loop
      vertex 3.5 0 0
      vertex 2.94439 1.89224 5
      vertex 2.94439 1.89224 0
    endloop
  endfacet
  facet normal -0.959493 -0.281733 0
    outer loop
      vertex 2.94439 1.89224 5
      vertex 3.5 0 0
      vertex 3.5 0 5
    endloop
  endfacet
  facet normal 1 -0 0
    outer loop
      vertex -3.35822 -0.986063 5
      vertex -3.35822 0.986063 0
      vertex -3.35822 0.986063 5
    endloop
  endfacet
  facet normal 1 0 0
    outer loop
      vertex -3.35822 0.986063 0
      vertex -3.35822 -0.986063 5
      vertex -3.35822 -0.986063 0
    endloop
  endfacet
  facet normal 0 0 1
    outer loop
      vertex 2.94439 1.89224 0
      vertex 3 0 0
      vertex 3.5 0 0
    endloop
  endfacet
  facet normal 0 0 1
    outer loop
      vertex 2.94439 1.89224 0
      vertex 2.42705 1.76336 0
      vertex 3 0 0
    endloop
  endfacet
  facet normal 0 0 1
    outer loop
      vertex 2.94439 1.89224 0
      vertex 2.10134 2 0
      vertex 2.42705 1.76336 0
    endloop
  endfacet
  facet normal 0 0 1
    outer loop
      vertex 1.45395 3.18371 0
      vertex 2.10134 2 0
      vertex 2.94439 1.89224 0
    endloop
  endfacet
  facet normal 0 0 1
    outer loop
      vertex -0.498101 3.46437 0
      vertex 2.10134 2 0
      vertex 1.45395 3.18371 0
    endloop
  endfacet
  facet normal 0 0 1
    outer loop
      vertex -0.498101 3.46437 0
      vertex -2.10134 2 0
      vertex 2.10134 2 0
    endloop
  endfacet
  facet normal -0 0 1
    outer loop
      vertex -2.29201 2.64512 0
      vertex -2.10134 2 0
      vertex -0.498101 3.46437 0
    endloop
  endfacet
  facet normal 0 0 1
    outer loop
      vertex -2.29201 2.64512 0
      vertex -2.42705 1.76336 0
      vertex -2.10134 2 0
    endloop
  endfacet
  facet normal 0 0 1
    outer loop
      vertex -3.35822 0.986063 0
      vertex -2.42705 1.76336 0
      vertex -2.29201 2.64512 0
    endloop
  endfacet
  facet normal 0 0 1
    outer loop
      vertex -2.42705 1.76336 0
      vertex -3.35822 0.986063 0
      vertex -3 0 0
    endloop
  endfacet
  facet normal -0 0 1
    outer loop
      vertex 3 0 0
      vertex 2.94439 -1.89224 0
      vertex 3.5 0 0
    endloop
  endfacet
  facet normal -0 0 1
    outer loop
      vertex 2.42705 -1.76336 0
      vertex 2.94439 -1.89224 0
      vertex 3 0 0
    endloop
  endfacet
  facet normal 0 0 1
    outer loop
      vertex 2.10134 -2 0
      vertex 2.94439 -1.89224 0
      vertex 2.42705 -1.76336 0
    endloop
  endfacet
  facet normal -0 0 1
    outer loop
      vertex 2.10134 -2 0
      vertex 1.45395 -3.18371 0
      vertex 2.94439 -1.89224 0
    endloop
  endfacet
  facet normal 0 0 1
    outer loop
      vertex 2.10134 -2 0
      vertex -0.498101 -3.46437 0
      vertex 1.45395 -3.18371 0
    endloop
  endfacet
  facet normal -0 0 1
    outer loop
      vertex -2.10134 -2 0
      vertex -0.498101 -3.46437 0
      vertex 2.10134 -2 0
    endloop
  endfacet
  facet normal 0 0 1
    outer loop
      vertex -2.10134 -2 0
      vertex -2.29201 -2.64512 0
      vertex -0.498101 -3.46437 0
    endloop
  endfacet
  facet normal 0 0 1
    outer loop
      vertex -2.42705 -1.76336 0
      vertex -2.29201 -2.64512 0
      vertex -2.10134 -2 0
    endloop
  endfacet
  facet normal -0 0 1
    outer loop
      vertex -3.35822 -0.986063 0
      vertex -2.42705 -1.76336 0
      vertex -3 0 0
    endloop
  endfacet
  facet normal 0 0 1
    outer loop
      vertex -3.35822 -0.986063 0
      vertex -3 0 0
      vertex -3.35822 0.986063 0
    endloop
  endfacet
  facet normal 0 0 1
    outer loop
      vertex -2.42705 -1.76336 0
      vertex -3.35822 -0.986063 0
      vertex -2.29201 -2.64512 0
    endloop
  endfacet
  facet normal 0.415415 -0.909632 0
    outer loop
      vertex -2.29201 2.64512 0
      vertex -0.498101 3.46437 5
      vertex -2.29201 2.64512 5
    endloop
  endfacet
  facet normal 0.415415 -0.909632 0
    outer loop
      vertex -0.498101 3.46437 5
      vertex -2.29201 2.64512 0
      vertex -0.498101 3.46437 0
    endloop
  endfacet
  facet normal 0.841254 -0.540641 0
    outer loop
      vertex -3.35822 0.986063 5
      vertex -2.29201 2.64512 0
      vertex -2.29201 2.64512 5
    endloop
  endfacet
  facet normal 0.841254 -0.540641 0
    outer loop
      vertex -2.29201 2.64512 0
      vertex -3.35822 0.986063 5
      vertex -3.35822 0.986063 0
    endloop
  endfacet
  facet normal -0.142315 0.989821 0
    outer loop
      vertex 1.45395 -3.18371 0
      vertex -0.498101 -3.46437 5
      vertex 1.45395 -3.18371 5
    endloop
  endfacet
  facet normal -0.142315 0.989821 0
    outer loop
      vertex -0.498101 -3.46437 5
      vertex 1.45395 -3.18371 0
      vertex -0.498101 -3.46437 0
    endloop
  endfacet
  facet normal -0.654861 0.75575 0
    outer loop
      vertex 2.94439 -1.89224 0
      vertex 1.45395 -3.18371 5
      vertex 2.94439 -1.89224 5
    endloop
  endfacet
  facet normal -0.654861 0.75575 0
    outer loop
      vertex 1.45395 -3.18371 5
      vertex 2.94439 -1.89224 0
      vertex 1.45395 -3.18371 0
    endloop
  endfacet
  facet normal -0.142315 -0.989821 0
    outer loop
      vertex -0.498101 3.46437 0
      vertex 1.45395 3.18371 5
      vertex -0.498101 3.46437 5
    endloop
  endfacet
  facet normal -0.142315 -0.989821 -0
    outer loop
      vertex 1.45395 3.18371 5
      vertex -0.498101 3.46437 0
      vertex 1.45395 3.18371 0
    endloop
  endfacet
  facet normal -0.654861 -0.75575 0
    outer loop
      vertex 1.45395 3.18371 0
      vertex 2.94439 1.89224 5
      vertex 1.45395 3.18371 5
    endloop
  endfacet
  facet normal -0.654861 -0.75575 -0
    outer loop
      vertex 2.94439 1.89224 5
      vertex 1.45395 3.18371 0
      vertex 2.94439 1.89224 0
    endloop
  endfacet
  facet normal 0.841254 0.540641 0
    outer loop
      vertex -2.29201 -2.64512 5
      vertex -3.35822 -0.986063 0
      vertex -3.35822 -0.986063 5
    endloop
  endfacet
  facet normal 0.841254 0.540641 0
    outer loop
      vertex -3.35822 -0.986063 0
      vertex -2.29201 -2.64512 5
      vertex -2.29201 -2.64512 0
    endloop
  endfacet
  facet normal -0.959493 0.281733 0
    outer loop
      vertex 2.94439 -1.89224 0
      vertex 3.5 0 5
      vertex 3.5 0 0
    endloop
  endfacet
  facet normal -0.959493 0.281733 0
    outer loop
      vertex 3.5 0 5
      vertex 2.94439 -1.89224 0
      vertex 2.94439 -1.89224 5
    endloop
  endfacet
  facet normal 0.415415 0.909632 -0
    outer loop
      vertex -0.498101 -3.46437 0
      vertex -2.29201 -2.64512 5
      vertex -0.498101 -3.46437 5
    endloop
  endfacet
  facet normal 0.415415 0.909632 0
    outer loop
      vertex -2.29201 -2.64512 5
      vertex -0.498101 -3.46437 0
      vertex -2.29201 -2.64512 0
    endloop
  endfacet
endsolid OpenSCAD_Model
