solid OpenSCAD_Model
  facet normal 0.707107 0.707107 0
    outer loop
      vertex 3 5 10
      vertex -2 10 -10
      vertex -2 10 10
    endloop
  endfacet
  facet normal 0.707107 0.707107 0
    outer loop
      vertex -2 10 -10
      vertex 3 5 10
      vertex 3 5 -10
    endloop
  endfacet
  facet normal -1 0 0
    outer loop
      vertex -10 -10 -10
      vertex -10 10 10
      vertex -10 10 -10
    endloop
  endfacet
  facet normal -1 -0 0
    outer loop
      vertex -10 10 10
      vertex -10 -10 -10
      vertex -10 -10 10
    endloop
  endfacet
  facet normal 0 0 1
    outer loop
      vertex -2 10 10
      vertex -5 5 10
      vertex 3 5 10
    endloop
  endfacet
  facet normal 0 0 1
    outer loop
      vertex -5 5 10
      vertex -10 10 10
      vertex -5 -5 10
    endloop
  endfacet
  facet normal -0 0 1
    outer loop
      vertex -10 10 10
      vertex -5 5 10
      vertex -2 10 10
    endloop
  endfacet
  facet normal 0 0 1
    outer loop
      vertex 5 -5 10
      vertex 10 10 10
      vertex 5 10 10
    endloop
  endfacet
  facet normal 0 0 1
    outer loop
      vertex 10 10 10
      vertex 5 -5 10
      vertex 10 -10 10
    endloop
  endfacet
  facet normal -0 0 1
    outer loop
      vertex -5 -5 10
      vertex 10 -10 10
      vertex 5 -5 10
    endloop
  endfacet
  facet normal 0 0 1
    outer loop
      vertex -5 -5 10
      vertex -10 -10 10
      vertex 10 -10 10
    endloop
  endfacet
  facet normal 0 0 1
    outer loop
      vertex -10 -10 10
      vertex -5 -5 10
      vertex -10 10 10
    endloop
  endfacet
  facet normal 1 -0 0
    outer loop
      vertex 10 -10 10
      vertex 10 10 -10
      vertex 10 10 10
    endloop
  endfacet
  facet normal 1 0 0
    outer loop
      vertex 10 10 -10
      vertex 10 -10 10
      vertex 10 -10 -10
    endloop
  endfacet
  facet normal 0 0 -1
    outer loop
      vertex 10 -10 -10
      vertex 5 -5 -10
      vertex 10 10 -10
    endloop
  endfacet
  facet normal 0 0 -1
    outer loop
      vertex 10 -10 -10
      vertex -5 -5 -10
      vertex 5 -5 -10
    endloop
  endfacet
  facet normal -0 0 -1
    outer loop
      vertex -5 -5 -10
      vertex -10 -10 -10
      vertex -5 5 -10
    endloop
  endfacet
  facet normal 0 0 -1
    outer loop
      vertex -10 -10 -10
      vertex -5 -5 -10
      vertex 10 -10 -10
    endloop
  endfacet
  facet normal -0 0 -1
    outer loop
      vertex 10 10 -10
      vertex 5 -5 -10
      vertex 5 10 -10
    endloop
  endfacet
  facet normal 0 0 -1
    outer loop
      vertex -5 5 -10
      vertex -2 10 -10
      vertex 3 5 -10
    endloop
  endfacet
  facet normal 0 0 -1
    outer loop
      vertex -5 5 -10
      vertex -10 10 -10
      vertex -2 10 -10
    endloop
  endfacet
  facet normal 0 0 -1
    outer loop
      vertex -10 10 -10
      vertex -5 5 -10
      vertex -10 -10 -10
    endloop
  endfacet
  facet normal 0 -1 0
    outer loop
      vertex -10 -10 -10
      vertex 10 -10 10
      vertex -10 -10 10
    endloop
  endfacet
  facet normal 0 -1 -0
    outer loop
      vertex 10 -10 10
      vertex -10 -10 -10
      vertex 10 -10 -10
    endloop
  endfacet
  facet normal 0 1 -0
    outer loop
      vertex 10 10 -10
      vertex 5 10 10
      vertex 10 10 10
    endloop
  endfacet
  facet normal 0 1 0
    outer loop
      vertex 5 10 10
      vertex 10 10 -10
      vertex 5 10 -10
    endloop
  endfacet
  facet normal 0 1 -0
    outer loop
      vertex -2 10 -10
      vertex -10 10 10
      vertex -2 10 10
    endloop
  endfacet
  facet normal 0 1 0
    outer loop
      vertex -10 10 10
      vertex -2 10 -10
      vertex -10 10 -10
    endloop
  endfacet
  facet normal 1 -0 0
    outer loop
      vertex -5 -5 10
      vertex -5 5 -10
      vertex -5 5 10
    endloop
  endfacet
  facet normal 1 0 0
    outer loop
      vertex -5 5 -10
      vertex -5 -5 10
      vertex -5 -5 -10
    endloop
  endfacet
  facet normal -1 0 0
    outer loop
      vertex 5 -5 -10
      vertex 5 10 10
      vertex 5 10 -10
    endloop
  endfacet
  facet normal -1 -0 0
    outer loop
      vertex 5 10 10
      vertex 5 -5 -10
      vertex 5 -5 10
    endloop
  endfacet
  facet normal 0 -1 0
    outer loop
      vertex -5 5 -10
      vertex 3 5 10
      vertex -5 5 10
    endloop
  endfacet
  facet normal 0 -1 -0
    outer loop
      vertex 3 5 10
      vertex -5 5 -10
      vertex 3 5 -10
    endloop
  endfacet
  facet normal 0 1 -0
    outer loop
      vertex 5 -5 -10
      vertex -5 -5 10
      vertex 5 -5 10
    endloop
  endfacet
  facet normal 0 1 0
    outer loop
      vertex -5 -5 10
      vertex 5 -5 -10
      vertex -5 -5 -10
    endloop
  endfacet
endsolid OpenSCAD_Model
